<?xml version="1.0" encoding="UTF-8" standalone="no"?>
<svg
   xmlns:dc="http://purl.org/dc/elements/1.1/"
   xmlns:cc="http://creativecommons.org/ns#"
   xmlns:rdf="http://www.w3.org/1999/02/22-rdf-syntax-ns#"
   xmlns:svg="http://www.w3.org/2000/svg"
   xmlns="http://www.w3.org/2000/svg"
   version="1.1"
   id="svg2"
   viewBox="0 0 744.09448819 1052.3622047"
   height="297mm"
   width="210mm">
  <defs
     id="defs4" />
  <metadata
     id="metadata7">
    <rdf:RDF>
      <cc:Work
         rdf:about="">
        <dc:format>image/svg+xml</dc:format>
        <dc:type
           rdf:resource="http://purl.org/dc/dcmitype/StillImage" />
        <dc:title></dc:title>
      </cc:Work>
    </rdf:RDF>
  </metadata>
  <g
     id="layer1">
    <g
       id="g3371"
       transform="matrix(11.719274,0,0,11.282682,-52.068888,184.38605)">
      <path
         id="path3373"
         d="M 0,0.5 0,0 0.5,0 1,0 1.5,0 2,0 2.5,0 3,0 3.5,0 4,0 4.5,0 5,0 5.5,0 6,0 6.5,0 7,0 7.5,0 8,0 8.5,0 9,0 9.5,0 10,0 l 0.5,0 0.5,0 0.5,0 0.5,0 0.5,0 0.5,0 0.5,0 0.5,0 0.5,0 0.5,0 0.5,0 0.5,0 0.5,0 0.5,0 0.5,0 0.5,0 0.5,0 0.5,0 0.5,0 0.5,0 0.5,0 0.5,0 0.5,0 0.5,0 0.5,0 0.5,0 0.5,0 0.5,0 0.5,0 0.5,0 0.5,0 0.5,0 0.5,0 0.5,0 0.5,0 0.5,0 0.5,0 0.5,0 0.5,0 0.5,0 0.5,0 0.5,0 0.5,0 0.5,0 0.5,0 0.5,0 0.5,0 0.5,0 0.5,0 0.5,0 0.5,0 0.5,0 0.5,0 0.5,0 0.5,0 0.5,0 0.5,0 0.5,0 0.5,0 0.5,0 0.5,0 0.5,0 0.5,0 0.5,0 0.5,0 0.5,0 0.5,0 0.5,0 0.5,0 0.5,0 0.5,0 0.5,0 0.5,0 0.5,0 0.5,0 0.5,0 0.5,0 0.5,0 0.5,0 0.5,0 0.5,0 0.5,0 0.5,0 0.5,0 0.5,0 0.5,0 0.5,0 0.5,0 0.5,0 0.5,0 0.5,0 0.5,0 0.5,0 0.5,0 0.5,0 0.5,0 0.5,0 0.5,0 0.5,0 0.5,0 0.5,0 0.5,0 0.5,0 0.5,0 0.5,0 0.5,0 0.5,0 0.5,0 0.5,0 0.5,0 0.5,0 0.5,0 0.5,0 0.5,0 0.5,0 0.5,0 0.5,0 0.5,0 0.5,0 0.5,0 0,0.5 0,0.5 0,0.5 0,0.5 0,0.5 0,0.5 0,0.5 0,0.5 0,0.5 0,0.5 0,0.5 0,0.5 0,0.5 0,0.5 0,0.5 0,0.5 0,0.5 0,0.5 0,0.5 0,0.5 0,0.5 0,0.5 0,0.5 0,0.5 0,0.5 0,0.5 0,0.5 0,0.5 0,0.5 0,0.5 0,0.5 0,0.5 0,0.5 0,0.5 0,0.5 0,0.5 0,0.5 0,0.5 0,0.5 0,0.5 0,0.5 0,0.5 0,0.5 0,0.5 0,0.5 0,0.5 0,0.5 0,0.5 0,0.5 0,0.5 0,0.5 0,0.5 0,0.5 0,0.5 0,0.5 0,0.5 0,0.5 0,0.5 0,0.5 0,0.5 0,0.5 0,0.5 0,0.5 0,0.5 0,0.5 0,0.5 0,0.5 0,0.5 0,0.5 0,0.5 0,0.5 0,0.5 0,0.5 0,0.5 0,0.5 0,0.5 0,0.5 0,0.5 0,0.5 0,0.5 0,0.5 0,0.5 0,0.5 0,0.5 0,0.5 0,0.5 0,0.5 0,0.5 0,0.5 0,0.5 0,0.5 0,0.5 0,0.5 0,0.5 0,0.5 0,0.5 0,0.5 0,0.5 0,0.5 0,0.5 0,0.5 0,0.5 0,0.5 0,0.5 0,0.5 0,0.5 0,0.5 0,0.5 0,0.5 0,0.5 0,0.5 0,0.5 0,0.5 0,0.5 0,0.5 0,0.5 0,0.5 0,0.5 0,0.5 0,0.5 0,0.5 0,0.5 0,0.5 0,0.5 0,0.5 0,0.5 -0.5,0 L 69,63 68.5,63 68,63 67.5,63 67,63 66.5,63 66,63 65.5,63 65,63 64.5,63 64,63 63.5,63 63,63 62.5,63 62,63 61.5,63 61,63 60.5,63 60,63 59.5,63 59,63 58.5,63 58,63 57.5,63 57,63 56.5,63 56,63 55.5,63 55,63 54.5,63 54,63 53.5,63 53,63 52.5,63 52,63 51.5,63 51,63 50.5,63 50,63 49.5,63 49,63 48.5,63 48,63 47.5,63 47,63 46.5,63 46,63 45.5,63 45,63 44.5,63 44,63 43.5,63 43,63 42.5,63 42,63 41.5,63 41,63 40.5,63 40,63 39.5,63 39,63 38.5,63 38,63 37.5,63 37,63 36.5,63 36,63 35.5,63 35,63 34.5,63 34,63 33.5,63 33,63 32.5,63 32,63 31.5,63 31,63 30.5,63 30,63 29.5,63 29,63 28.5,63 28,63 27.5,63 27,63 26.5,63 26,63 25.5,63 25,63 24.5,63 24,63 23.5,63 23,63 22.5,63 22,63 21.5,63 21,63 20.5,63 20,63 19.5,63 19,63 18.5,63 18,63 17.5,63 17,63 16.5,63 16,63 15.5,63 15,63 14.5,63 14,63 13.5,63 13,63 12.5,63 12,63 11.5,63 11,63 10.5,63 10,63 9.5,63 9,63 8.5,63 8,63 7.5,63 7,63 6.5,63 6,63 5.5,63 5,63 4.5,63 4,63 3.5,63 3,63 2.5,63 2,63 1.5,63 1,63 0.5,63 0,63 0,62.5 0,62 0,61.5 0,61 0,60.5 0,60 0,59.5 0,59 0,58.5 0,58 0,57.5 0,57 0,56.5 0,56 0,55.5 0,55 0,54.5 0,54 0,53.5 0,53 0,52.5 0,52 0,51.5 0,51 0,50.5 0,50 0,49.5 0,49 0,48.5 0,48 0,47.5 0,47 0,46.5 0,46 0,45.5 0,45 0,44.5 0,44 0,43.5 0,43 0,42.5 0,42 0,41.5 0,41 0,40.5 0,40 0,39.5 0,39 0,38.5 0,38 0,37.5 0,37 0,36.5 0,36 0,35.5 0,35 0,34.5 0,34 0,33.5 0,33 0,32.5 0,32 0,31.5 0,31 0,30.5 0,30 0,29.5 0,29 0,28.5 0,28 0,27.5 0,27 0,26.5 0,26 0,25.5 0,25 0,24.5 0,24 0,23.5 0,23 0,22.5 0,22 0,21.5 0,21 0,20.5 0,20 0,19.5 0,19 0,18.5 0,18 0,17.5 0,17 0,16.5 0,16 0,15.5 0,15 0,14.5 0,14 0,13.5 0,13 0,12.5 0,12 0,11.5 0,11 0,10.5 0,10 0,9.5 0,9 0,8.5 0,8 0,7.5 0,7 0,6.5 0,6 0,5.5 0,5 0,4.5 0,4 0,3.5 0,3 0,2.5 0,2 0,1.5 0,1 0,0.5 M 34.5,54 q 0.5,0 0.875,-0.125 0.375,-0.125 0.5,-0.5 Q 36,53 36,52.5 q 0,-0.5 0,-1 0,-0.5 0.125,-0.875 0.125,-0.375 0.5,-0.5 Q 37,50 37.5,50 q 0.5,0 1,0 0.5,0 1,0 0.5,0 1,0 0.5,0 0.875,-0.125 0.375,-0.125 0.5,-0.5 Q 42,49 42,48.5 q 0,-0.5 0,-1 0,-0.5 0,-1 0,-0.5 -0.125,-0.875 -0.125,-0.375 -0.5,-0.5 Q 41,45 40.625,44.875 40.25,44.75 40.125,44.375 40,44 40,43.5 q 0,-0.5 0,-1 0,-0.5 0.125,-0.875 0.125,-0.375 0.5,-0.5 Q 41,41 41.375,40.875 41.75,40.75 41.875,40.375 42,40 42.125,39.625 42.25,39.25 42.625,39.125 43,39 43.375,38.875 43.75,38.75 43.875,38.375 44,38 44.125,37.625 44.25,37.25 44.625,37.125 45,37 45.375,36.875 45.75,36.75 45.875,36.375 46,36 46.125,35.625 46.25,35.25 46.625,35.125 47,35 47.375,34.875 47.75,34.75 47.875,34.375 48,34 48.125,33.625 48.25,33.25 48.625,33.125 49,33 49.5,33 q 0.5,0 0.875,-0.125 0.375,-0.125 0.5,-0.5 Q 51,32 51.125,31.625 51.25,31.25 51.625,31.125 52,31 52.5,31 q 0.5,0 1,0 0.5,0 1,0 0.5,0 1,0 0.5,0 0.875,-0.125 Q 56.75,30.75 57,30.5 q 0.25,-0.25 0.5,-0.25 0.25,0 0.5,0.25 0.25,0.25 0.625,0.375 Q 59,31 59.5,31 q 0.5,0 1,0 0.5,0 1,0 0.5,0 0.875,-0.125 Q 62.75,30.75 63,30.5 q 0.25,-0.25 0.5,-0.5 0.25,-0.25 0.5,-0.5 0.25,-0.25 0.5,-0.5 0.25,-0.25 0.25,-0.5 0,-0.25 -0.25,-0.5 -0.25,-0.25 -0.25,-0.5 0,-0.25 0.25,-0.5 0.25,-0.25 0.25,-0.5 0,-0.25 -0.25,-0.5 Q 64.25,25.75 64,25.5 63.75,25.25 63.375,25.125 63,25 62.5,25 q -0.5,0 -1,0 -0.5,0 -1,0 -0.5,0 -1,0 -0.5,0 -1,0 -0.5,0 -1,0 -0.5,0 -1,0 -0.5,0 -1,0 -0.5,0 -1,0 -0.5,0 -1,0 -0.5,0 -1,0 -0.5,0 -0.875,-0.125 -0.375,-0.125 -0.5,-0.5 Q 51,24 51,23.5 q 0,-0.5 0,-1 0,-0.5 0,-1 0,-0.5 0,-1 0,-0.5 0,-1 0,-0.5 0,-1 0,-0.5 0,-1 0,-0.5 0,-1 0,-0.5 0,-1 0,-0.5 -0.125,-0.875 -0.125,-0.375 -0.5,-0.5 Q 50,14 49.5,14 49,14 48.625,13.875 48.25,13.75 48.125,13.375 48,13 48.125,12.625 48.25,12.25 48.625,12.125 49,12 49.5,12 q 0.5,0 0.875,-0.125 0.375,-0.125 0.5,-0.5 Q 51,11 51,10.5 51,10 51,9.5 51,9 51,8.5 51,8 51,7.5 51,7 51,6.5 51,6 51,5.5 51,5 50.875,4.625 50.75,4.25 50.375,4.125 50,4 49.5,4 49,4 48.5,4 48,4 47.5,4 47,4 46.625,3.875 46.25,3.75 46.125,3.375 46,3 45.875,2.625 45.75,2.25 45.375,2.125 45,2 44.5,2 44,2 43.5,2 43,2 42.625,2.125 42.25,2.25 42.125,2.625 42,3 41.875,3.375 41.75,3.75 41.375,3.875 41,4 40.625,4.125 40.25,4.25 40.125,4.625 40,5 39.875,5.375 39.75,5.75 39.375,5.875 39,6 38.625,6.125 38.25,6.25 38.125,6.625 38,7 38,7.5 q 0,0.5 0,1 0,0.5 0,1 0,0.5 0,1 0,0.5 0,1 0,0.5 0,1 0,0.5 0,1 0,0.5 0,1 0,0.5 -0.125,0.875 -0.125,0.375 -0.5,0.5 Q 37,16 36.625,16.125 36.25,16.25 36.125,16.625 36,17 35.875,17.375 35.75,17.75 35.375,17.875 35,18 34.625,18.125 34.25,18.25 34.125,18.625 34,19 33.875,19.375 33.75,19.75 33.375,19.875 33,20 32.5,20 q -0.5,0 -1,0 -0.5,0 -1,0 -0.5,0 -0.875,-0.125 -0.375,-0.125 -0.5,-0.5 Q 29,19 28.875,18.625 28.75,18.25 28.375,18.125 28,18 27.625,17.875 27.25,17.75 27.125,17.375 27,17 26.875,16.625 26.75,16.25 26.375,16.125 26,16 25.625,15.875 25.25,15.75 25.125,15.375 25,15 25,14.5 q 0,-0.5 0,-1 0,-0.5 0,-1 0,-0.5 0,-1 0,-0.5 0,-1 0,-0.5 0,-1 Q 25,9 24.875,8.625 24.75,8.25 24.375,8.125 24,8 23.5,8 23,8 22.5,8 22,8 21.625,8.125 21.25,8.25 21.125,8.625 21,9 20.875,9.375 20.75,9.75 20.375,9.875 20,10 19.5,10 q -0.5,0 -1,0 -0.5,0 -0.875,0.125 -0.375,0.125 -0.5,0.5 Q 17,11 16.875,11.375 16.75,11.75 16.375,11.875 16,12 15.625,12.125 15.25,12.25 15.125,12.625 15,13 15,13.5 q 0,0.5 0,1 0,0.5 0,1 0,0.5 0,1 0,0.5 0,1 0,0.5 0,1 0,0.5 0.125,0.875 0.125,0.375 0.5,0.5 0.375,0.125 0.75,0.25 0.375,0.125 0.5,0.5 Q 17,21 17,21.5 q 0,0.5 0,1 0,0.5 0,1 0,0.5 -0.125,0.875 -0.125,0.375 -0.5,0.5 Q 16,25 15.5,25 15,25 14.625,24.875 14.25,24.75 14,24.5 13.75,24.25 13.375,24.125 13,24 12.5,24 12,24 11.5,24 11,24 10.5,24 10,24 9.625,24.125 9.25,24.25 9,24.5 8.75,24.75 8.5,25 8.25,25.25 8.125,25.625 8,26 8,26.5 8,27 8,27.5 8,28 8,28.5 8,29 8.125,29.375 8.25,29.75 8.5,30 8.75,30.25 9,30.5 9.25,30.75 9.625,30.875 10,31 10.5,31 q 0.5,0 1,0 0.5,0 1,0 0.5,0 1,0 0.5,0 1,0 0.5,0 1,0 0.5,0 0.875,-0.125 Q 16.75,30.75 17,30.5 17.25,30.25 17.625,30.125 L 18,30 l 0.375,0.125 q 0.375,0.125 0.5,0.5 Q 19,31 19,31.5 q 0,0.5 0,1 0,0.5 0,1 0,0.5 0.125,0.875 0.125,0.375 0.5,0.5 0.375,0.125 0.75,0.25 0.375,0.125 0.5,0.5 0.125,0.375 0.25,0.75 0.125,0.375 0.5,0.5 0.375,0.125 0.75,0.25 0.375,0.125 0.5,0.5 Q 23,38 23,38.5 q 0,0.5 0,1 0,0.5 0.125,0.875 0.125,0.375 0.5,0.5 Q 24,41 24.5,41 q 0.5,0 1,0 0.5,0 1,0 0.5,0 1,0 0.5,0 1,0 0.5,0 0.875,0.125 0.375,0.125 0.5,0.5 Q 30,42 30,42.5 q 0,0.5 0,1 0,0.5 0,1 0,0.5 0,1 0,0.5 0,1 0,0.5 0,1 0,0.5 0,1 0,0.5 0,1 0,0.5 0,1 0,0.5 0,1 0,0.5 0,1 0,0.5 0.125,0.875 0.125,0.375 0.5,0.5 Q 31,54 31.5,54 q 0.5,0 1,0 0.5,0 1,0 0.5,0 1,0"
         style="fill:#000000;fill-opacity:0" />
      <path
         id="path3375"
         d="M 42.125,2.625 Q 42.25,2.25 42.625,2.125 43,2 43.5,2 q 0.5,0 1,0 0.5,0 0.875,0.125 0.375,0.125 0.5,0.5 Q 46,3 46.125,3.375 46.25,3.75 46.625,3.875 47,4 47.5,4 q 0.5,0 1,0 0.5,0 1,0 0.5,0 0.875,0.125 0.375,0.125 0.5,0.5 Q 51,5 51,5.5 q 0,0.5 0,1 0,0.5 0,1 0,0.5 0,1 0,0.5 0,1 0,0.5 0,1 0,0.5 -0.125,0.875 -0.125,0.375 -0.5,0.5 Q 50,12 49.5,12 q -0.5,0 -0.875,0.125 -0.375,0.125 -0.5,0.5 -0.125,0.375 0,0.75 0.125,0.375 0.5,0.5 Q 49,14 49.5,14 q 0.5,0 0.875,0.125 0.375,0.125 0.5,0.5 Q 51,15 51,15.5 q 0,0.5 0,1 0,0.5 0,1 0,0.5 0,1 0,0.5 0,1 0,0.5 0,1 0,0.5 0,1 0,0.5 0,1 0,0.5 0,1 0,0.5 0.125,0.875 0.125,0.375 0.5,0.5 Q 52,25 52.5,25 q 0.5,0 1,0 0.5,0 1,0 0.5,0 1,0 0.5,0 1,0 0.5,0 1,0 0.5,0 1,0 0.5,0 1,0 0.5,0 1,0 0.5,0 1,0 0.5,0 1,0 0.5,0 0.875,0.125 Q 63.75,25.25 64,25.5 L 64.25,25.75 64,26 q -0.25,0.25 -0.25,0.5 0,0.25 0.28125,0.5 L 64.3125,27.25 64.34375,27.1875 64.375,27.125 64.3125,27.25 Q 64.25,27.375 64.25,27.5 l 0,0.125 0,-0.1875 0,-0.1875 0,0.25 0,0.25 0,-0.1875 0,-0.1875 0,0.125 q 0,0.125 0.0625,0.25 L 64.375,27.875 64.34375,27.8125 64.3125,27.75 64.03125,28 Q 63.75,28.25 63.75,28.5 63.75,28.75 64,29 L 64.25,29.25 64,29.5 Q 63.75,29.75 63.5,30 63.25,30.25 63,30.5 62.75,30.75 62.375,30.875 62,31 61.5,31 61,31 60.5,31 60,31 59.5,31 59,31 58.625,30.875 58.25,30.75 58,30.5 L 57.75,30.25 57.9375,30.4375 58.125,30.625 58,30.5 Q 57.875,30.375 57.75,30.3125 L 57.625,30.25 57.6875,30.28125 57.75,30.3125 58,30.03125 Q 58.25,29.75 58.125,29.375 58,29 57.5,29 57,29 56.875,29.375 56.75,29.75 57,30.03125 L 57.25,30.3125 57.3125,30.28125 57.375,30.25 57.25,30.3125 Q 57.125,30.375 57,30.5 L 56.875,30.625 57.0625,30.4375 57.25,30.25 57,30.5 Q 56.75,30.75 56.375,30.875 56,31 55.5,31 q -0.5,0 -1,0 -0.5,0 -1,0 -0.5,0 -1,0 -0.5,0 -0.875,0.125 -0.375,0.125 -0.5,0.5 Q 51,32 50.875,32.375 50.75,32.75 50.375,32.875 50,33 49.5,33 49,33 48.625,33.125 48.25,33.25 48.125,33.625 48,34 47.875,34.375 47.75,34.75 47.375,34.875 47,35 46.625,35.125 46.25,35.25 46.125,35.625 46,36 45.875,36.375 45.75,36.75 45.375,36.875 45,37 44.625,37.125 44.25,37.25 44.125,37.625 44,38 43.875,38.375 43.75,38.75 43.375,38.875 43,39 42.625,39.125 42.25,39.25 42.125,39.625 42,40 41.875,40.375 41.75,40.75 41.375,40.875 41,41 40.625,41.125 40.25,41.25 40.125,41.625 40,42 40,42.5 q 0,0.5 0,1 0,0.5 0.125,0.875 0.125,0.375 0.5,0.5 0.375,0.125 0.75,0.25 0.375,0.125 0.5,0.5 Q 42,46 42,46.5 q 0,0.5 0,1 0,0.5 0,1 0,0.5 -0.125,0.875 -0.125,0.375 -0.5,0.5 Q 41,50 40.5,50 q -0.5,0 -1,0 -0.5,0 -1,0 -0.5,0 -1,0 -0.5,0 -0.875,0.125 -0.375,0.125 -0.5,0.5 Q 36,51 36,51.5 q 0,0.5 0,1 0,0.5 -0.125,0.875 -0.125,0.375 -0.5,0.5 Q 35,54 34.5,54 q -0.5,0 -1,0 -0.5,0 -1,0 -0.5,0 -1,0 -0.5,0 -0.875,-0.125 -0.375,-0.125 -0.5,-0.5 Q 30,53 30,52.5 q 0,-0.5 0,-1 0,-0.5 0,-1 0,-0.5 0,-1 0,-0.5 0,-1 0,-0.5 0,-1 0,-0.5 0,-1 0,-0.5 0,-1 0,-0.5 0,-1 0,-0.5 0,-1 0,-0.5 0,-1 0,-0.5 -0.125,-0.875 -0.125,-0.375 -0.5,-0.5 Q 29,41 28.5,41 q -0.5,0 -1,0 -0.5,0 -1,0 -0.5,0 -1,0 -0.5,0 -1,0 -0.5,0 -0.875,-0.125 -0.375,-0.125 -0.5,-0.5 Q 23,40 23,39.5 23,39 23,38.5 23,38 22.875,37.625 22.75,37.25 22.375,37.125 22,37 21.625,36.875 21.25,36.75 21.125,36.375 21,36 20.875,35.625 20.75,35.25 20.375,35.125 20,35 19.625,34.875 19.25,34.75 19.125,34.375 19,34 19,33.5 q 0,-0.5 0,-1 0,-0.5 0,-1 0,-0.5 -0.125,-0.875 -0.125,-0.375 -0.5,-0.5 L 18,30 18,29.5 Q 18,29 17.5,29 17,29 16.875,29.375 16.75,29.75 17.015625,30.015625 l 0.265625,0.265625 0.07813,-0.04687 0.07813,-0.04687 -0.15625,0.09375 Q 17.125,30.375 17,30.5 L 16.875,30.625 17.0625,30.4375 17.25,30.25 17,30.5 Q 16.75,30.75 16.375,30.875 16,31 15.5,31 q -0.5,0 -1,0 -0.5,0 -1,0 -0.5,0 -1,0 -0.5,0 -1,0 -0.5,0 -1,0 Q 10,31 9.625,30.875 9.25,30.75 9,30.5 L 8.75,30.25 9.015625,29.984375 9.28125,29.71875 9.234375,29.640625 9.1875,29.5625 9.28125,29.71875 Q 9.375,29.875 9.5,30 L 9.625,30.125 9.4375,29.9375 9.25,29.75 9.5,30 q 0.25,0.25 0.53125,-0.03125 L 10.3125,29.6875 10.25,29.625 l -0.0625,-0.0625 0.125,0.125 q 0.125,0.125 0.3125,0.1875 L 10.8125,29.9375 10.53125,29.84375 10.25,29.75 10.625,29.875 Q 11,30 11.5,30 12,30 12.375,29.875 12.75,29.75 12.75,29.5 12.75,29.25 12.375,29.125 12,29 11.625,28.875 11.25,28.75 11.25,28.5 q 0,-0.25 0.375,-0.375 0.375,-0.125 0.75,0 0.375,0.125 0.625,0.375 0.25,0.25 0.5,0.25 0.25,0 0.25,-0.25 0,-0.25 -0.25,-0.5 -0.25,-0.25 -0.25,-0.5 0,-0.25 0.25,-0.5 0.25,-0.25 0.25,-0.5 0,-0.25 -0.25,-0.25 -0.25,0 -0.5,0.25 -0.25,0.25 -0.625,0.375 Q 12,27 11.625,26.875 11.25,26.75 11.25,26.5 q 0,-0.25 0.375,-0.375 Q 12,26 12.375,25.875 12.75,25.75 12.75,25.5 12.75,25.25 12.375,25.125 12,25 11.5,25 q -0.5,0 -0.875,0.125 -0.375,0.125 -0.5,0.5 L 10,26 9.5,26 9,26 9.125,25.625 Q 9.25,25.25 9,25 L 8.75,24.75 9,24.5 Q 9.25,24.25 9.625,24.125 10,24 10.5,24 q 0.5,0 1,0 0.5,0 1,0 0.5,0 0.875,0.125 Q 13.75,24.25 14,24.5 14.25,24.75 14.625,24.875 15,25 15.5,25 q 0.5,0 0.875,-0.125 0.375,-0.125 0.5,-0.5 Q 17,24 17,23.5 q 0,-0.5 0,-1 0,-0.5 0,-1 0,-0.5 -0.125,-0.875 -0.125,-0.375 -0.5,-0.5 Q 16,20 15.625,19.875 15.25,19.75 15.125,19.375 15,19 15,18.5 q 0,-0.5 0,-1 0,-0.5 0,-1 0,-0.5 0,-1 0,-0.5 0,-1 0,-0.5 0,-1 0,-0.5 0.125,-0.875 0.125,-0.375 0.5,-0.5 Q 16,12 16.375,11.875 16.75,11.75 16.875,11.375 17,11 17.125,10.625 17.25,10.25 17.625,10.125 18,10 18.5,10 q 0.5,0 1,0 0.5,0 0.875,-0.125 0.375,-0.125 0.5,-0.5 Q 21,9 21.125,8.625 21.25,8.25 21.625,8.125 22,8 22.5,8 q 0.5,0 1,0 0.5,0 0.875,0.125 0.375,0.125 0.5,0.5 Q 25,9 25,9.5 q 0,0.5 0,1 0,0.5 0,1 0,0.5 0,1 0,0.5 0,1 0,0.5 0,1 0,0.5 0.125,0.875 0.125,0.375 0.5,0.5 0.375,0.125 0.75,0.25 0.375,0.125 0.5,0.5 0.125,0.375 0.25,0.75 0.125,0.375 0.5,0.5 0.375,0.125 0.75,0.25 0.375,0.125 0.5,0.5 0.125,0.375 0.25,0.75 0.125,0.375 0.5,0.5 Q 30,20 30.5,20 q 0.5,0 1,0 0.5,0 1,0 0.5,0 0.875,-0.125 0.375,-0.125 0.5,-0.5 Q 34,19 34.125,18.625 34.25,18.25 34.625,18.125 35,18 35.375,17.875 35.75,17.75 35.875,17.375 36,17 36.125,16.625 36.25,16.25 36.625,16.125 37,16 37.375,15.875 37.75,15.75 37.875,15.375 38,15 38,14.5 q 0,-0.5 0,-1 0,-0.5 0,-1 0,-0.5 0,-1 0,-0.5 0,-1 0,-0.5 0,-1 Q 38,9 38,8.5 38,8 38,7.5 38,7 38.125,6.625 38.25,6.25 38.625,6.125 39,6 39.375,5.875 39.75,5.75 39.875,5.375 40,5 40.125,4.625 40.25,4.25 40.625,4.125 41,4 41.375,3.875 41.75,3.75 41.875,3.375 42,3 42.125,2.625 M 8.9375,24.5625 8.75,24.75 8.6875,24.8125 8.625,24.875 8.75,24.75 Q 8.875,24.625 9,24.5 l 0.125,-0.125 -0.1875,0.1875 m -0.25,5.625 L 8.75,30.25 8.9375,30.4375 9.125,30.625 9,30.5 Q 8.875,30.375 8.75,30.25 L 8.625,30.125 8.6875,30.1875 M 33.5,53 q 0.5,0 0.875,-0.125 0.375,-0.125 0.5,-0.5 0.125,-0.375 0,-0.75 -0.125,-0.375 -0.5,-0.5 Q 34,51 33.625,50.875 33.25,50.75 33.125,50.375 33,50 33,49.5 q 0,-0.5 0,-1 0,-0.5 0,-1 0,-0.5 0,-1 0,-0.5 0,-1 0,-0.5 0,-1 0,-0.5 0,-1 0,-0.5 0,-1 0,-0.5 0.5,-0.5 0.5,0 1,0 0.5,0 1,0 0.5,0 1,0 0.5,0 0.5,0.5 0,0.5 0,1 0,0.5 0,1 0,0.5 0,1 0,0.5 0,1 0,0.5 0,1 0,0.5 0.125,0.875 0.125,0.375 0.5,0.5 Q 38,49 38.5,49 q 0.5,0 1,0 0.5,0 0.875,-0.125 0.375,-0.125 0.5,-0.5 Q 41,48 41,47.5 41,47 40.875,46.625 40.75,46.25 40.375,46.125 40,46 39.625,45.875 39.25,45.75 39.125,45.375 39,45 39,44.5 q 0,-0.5 0,-1 0,-0.5 0,-1 0,-0.5 0,-1 0,-0.5 0,-1 l 0,-0.5 0.5,0 q 0.5,0 0.875,-0.125 0.375,-0.125 0.5,-0.5 Q 41,39 41,38.5 l 0,-0.5 0.5,0 q 0.5,0 0.875,-0.125 0.375,-0.125 0.5,-0.5 Q 43,37 43.125,36.625 43.25,36.25 43.625,36.125 44,36 44.375,35.875 44.75,35.75 44.875,35.375 45,35 45.125,34.625 45.25,34.25 45.625,34.125 46,34 46.375,33.875 46.75,33.75 46.875,33.375 47,33 47.125,32.625 47.25,32.25 47.625,32.125 48,32 48.5,32 q 0.5,0 0.875,-0.125 0.375,-0.125 0.5,-0.5 Q 50,31 50,30.5 L 50,30 50.04687,29.453125 50.09374,28.90625 50.04687,28.82812 50,28.75 50.09375,28.90625 Q 50.1875,29.0625 50.375,29.125 L 50.5625,29.1875 50.28125,29.09375 50,29 50.375,29.125 Q 50.75,29.25 51,29.5 q 0.25,0.25 0.625,0.375 0.375,0.125 0.75,0 Q 52.75,29.75 52.75,29.5 52.75,29.25 52.5,29 52.25,28.75 52,28.5 51.75,28.25 51.5,28 q -0.25,-0.25 -0.25,-0.5 0,-0.25 0.25,-0.25 0.25,0 0.5,0.25 0.25,0.25 0.625,0.375 0.375,0.125 0.75,0 Q 53.75,27.75 53.75,27.5 53.75,27.25 53.5,27 53.25,26.75 53,26.5 52.75,26.25 52.375,26.125 52,26 51.625,26.125 51.25,26.25 51,26.5 50.75,26.75 50.375,26.875 L 50,27 50.28125,26.90625 50.5625,26.8125 50.375,26.875 q -0.1875,0.0625 -0.28125,0.21875 L 50,27.25 50.04687,27.17187 50.09374,27.09374 50.04687,26.546865 Q 50,26 50,25.5 q 0,-0.5 0,-1 0,-0.5 0,-1 0,-0.5 0,-1 0,-0.5 0,-1 0,-0.5 0,-1 0,-0.5 0,-1 0,-0.5 0,-1 0,-0.5 0,-1 0,-0.5 0,-1 0,-0.5 -0.125,-0.875 -0.125,-0.375 -0.5,-0.5 Q 49,15 48.5,15 48,15 47.625,14.875 47.25,14.75 47.125,14.375 47,14 47,13.5 q 0,-0.5 0,-1 0,-0.5 0,-1 l 0,-0.5 0.5,0 q 0.5,0 1,0 0.5,0 0.875,-0.125 0.375,-0.125 0.5,-0.5 Q 50,10 49.875,9.625 49.75,9.25 49.375,9.125 49,9 48.5,9 48,9 47.625,8.875 47.25,8.75 47.125,8.375 47,8 47,7.5 47,7 47.5,7 48,7 48.5,7 49,7 49.375,6.875 49.75,6.75 49.875,6.375 50,6 49.875,5.625 49.75,5.25 49.375,5.125 49,5 48.5,5 48,5 47.5,5 47,5 46.5,5 46,5 45.625,4.875 45.25,4.75 45.125,4.375 45,4 44.875,3.625 44.75,3.25 44.375,3.125 44,3 43.625,3.125 43.25,3.25 43.125,3.625 43,4 42.875,4.375 42.75,4.75 42.375,4.875 42,5 41.625,5.125 41.25,5.25 41.125,5.625 41,6 41,6.5 L 41,7 41,6.625 41,6.25 41,6.5 q 0,0.25 0.125,0.375 L 41.25,7 41.1875,6.9375 41.125,6.875 40.5625,6.9375 Q 40,7 39.625,7.125 39.25,7.25 39.125,7.625 39,8 39,8.5 q 0,0.5 0,1 0,0.5 0,1 0,0.5 0,1 0,0.5 0,1 0,0.5 0,1 0,0.5 0,1 0,0.5 0,1 0,0.5 -0.125,0.875 -0.125,0.375 -0.5,0.5 Q 38,17 37.625,17.125 37.25,17.25 37.125,17.625 37,18 36.875,18.375 36.75,18.75 36.375,18.875 36,19 35.625,19.125 35.25,19.25 35.125,19.625 35,20 34.875,20.375 34.75,20.75 34.375,20.875 34,21 33.5,21 q -0.5,0 -1,0 -0.5,0 -1,0 -0.5,0 -1,0 -0.5,0 -1,0 -0.5,0 -0.875,-0.125 -0.375,-0.125 -0.5,-0.5 Q 28,20 27.875,19.625 27.75,19.25 27.375,19.125 27,19 26.625,18.875 26.25,18.75 26.125,18.375 26,18 25.875,17.625 25.75,17.25 25.375,17.125 25,17 24.4375,16.9375 L 23.875,16.875 23.8125,16.9375 23.75,17 23.875,16.875 Q 24,16.75 24,16.5 l 0,-0.25 0,0.375 0,0.375 0,-0.5 q 0,-0.5 0,-1 0,-0.5 0,-1 0,-0.5 0,-1 0,-0.5 0,-1 0,-0.5 0,-1 0,-0.5 0,-1 Q 24,10 23.875,9.625 23.75,9.25 23.375,9.125 23,9 22.625,9.125 22.25,9.25 22.125,9.625 22,10 21.875,10.375 21.75,10.75 21.375,10.875 21,11 20.5,11 q -0.5,0 -1,0 -0.5,0 -0.875,0.125 -0.375,0.125 -0.5,0.5 -0.125,0.375 -0.25,0.75 -0.125,0.375 -0.5,0.5 -0.375,0.125 -0.75,0.25 -0.375,0.125 -0.5,0.5 -0.125,0.375 0,0.75 0.125,0.375 0.5,0.5 0.375,0.125 0.75,0.25 0.375,0.125 0.5,0.5 0.125,0.375 0,0.75 -0.125,0.375 -0.5,0.5 -0.375,0.125 -0.75,0.25 -0.375,0.125 -0.5,0.5 -0.125,0.375 0,0.75 0.125,0.375 0.5,0.5 Q 17,19 17.5,19 q 0.5,0 0.5,0.5 0,0.5 0,1 0,0.5 0,1 0,0.5 0,1 0,0.5 0,1 0,0.5 0,1 0,0.5 0,1 l 0,0.5 -0.375,0.125 Q 17.25,26.25 17,26.5 q -0.25,0.25 -0.5,0.25 -0.25,0 -0.5,-0.25 -0.25,-0.25 -0.5,-0.25 -0.25,0 -0.375,0.375 Q 15,27 15,27.5 q 0,0.5 0,1 0,0.5 0.125,0.875 0.125,0.375 0.375,0.375 0.25,0 0.375,-0.375 Q 16,29 16.125,28.625 16.25,28.25 16.5,28 16.75,27.75 17,27.5 17.25,27.25 17.640625,27.109375 L 18.03125,26.96875 18.015625,26.859375 18,26.75 18.03125,26.96875 Q 18.0625,27.1875 18.125,27.375 L 18.1875,27.5625 18.09375,27.28125 18,27 l 0.125,0.375 q 0.125,0.375 0.53125,0.5 L 19.0625,28 l 0,-0.09375 0,-0.09375 0,0.1875 q 0,0.1875 0.0625,0.375 L 19.1875,28.5625 19.09375,28.28125 19,28 19.125,28.375 Q 19.25,28.75 19.5,29 19.75,29.25 19.875,29.625 20,30 20,30.5 q 0,0.5 0,1 0,0.5 0,1 0,0.5 0.125,0.875 0.125,0.375 0.5,0.5 0.375,0.125 0.75,0.25 0.375,0.125 0.5,0.5 0.125,0.375 0.25,0.75 0.125,0.375 0.5,0.5 0.375,0.125 0.75,0.25 0.375,0.125 0.5,0.5 Q 24,37 24,37.5 q 0,0.5 0,1 0,0.5 0.125,0.875 0.125,0.375 0.5,0.5 Q 25,40 25.5,40 q 0.5,0 1,0 0.5,0 1,0 0.5,0 1,0 0.5,0 1,0 0.5,0 1,0 0.5,0 0.5,0.5 0,0.5 0,1 0,0.5 0,1 0,0.5 0,1 0,0.5 0,1 0,0.5 0,1 0,0.5 0,1 0,0.5 0,1 0,0.5 0,1 0,0.5 0,1 0,0.5 0,1 0,0.5 0,1 0,0.5 0.125,0.875 0.125,0.375 0.5,0.5 Q 32,53 32.5,53 q 0.5,0 1,0 m 1.125,-3.125 q 0.375,0.125 0.75,0 0.375,-0.125 0.5,-0.5 Q 36,49 36,48.5 q 0,-0.5 0,-1 0,-0.5 0,-1 0,-0.5 0,-1 0,-0.5 0,-1 0,-0.5 -0.125,-0.875 -0.125,-0.375 -0.5,-0.5 -0.375,-0.125 -0.75,0 -0.375,0.125 -0.5,0.5 Q 34,44 34,44.5 q 0,0.5 0,1 0,0.5 0,1 0,0.5 0,1 0,0.5 0,1 0,0.5 0.125,0.875 0.125,0.375 0.5,0.5 M 41.375,38 41,38 40.875,38 40.75,38 41,38 q 0.25,0 0.5,0 l 0.25,0 -0.375,0 m 6,-27 L 47,11 46.875,11 46.75,11 47,11 q 0.25,0 0.5,0 l 0.25,0 -0.375,0 M 18,26.125 18,26 l 0,-0.375 0,-0.375 0,0.25 q 0,0.25 0,0.5 l 0,0.25 0,-0.125 m 37.125,3.25 q 0.125,0.375 0.375,0.375 0.25,0 0.375,-0.375 Q 56,29 56.125,28.625 56.25,28.25 56.5,28 q 0.25,-0.25 0.5,-0.5 0.25,-0.25 0.5,-0.5 0.25,-0.25 0.25,-0.5 0,-0.25 -0.25,-0.25 -0.25,0 -0.5,0.25 -0.25,0.25 -0.5,0.25 -0.25,0 -0.5,-0.25 -0.25,-0.25 -0.5,-0.25 -0.25,0 -0.375,0.375 Q 55,27 55,27.5 q 0,0.5 0,1 0,0.5 0.125,0.875 M 60.5,30 Q 61,30 61.375,29.875 61.75,29.75 62,29.5 q 0.25,-0.25 0.5,-0.5 0.25,-0.25 0.25,-0.5 0,-0.25 -0.375,-0.375 Q 62,28 61.625,28.125 61.25,28.25 61,28.5 60.75,28.75 60.375,28.875 60,29 59.625,29.125 59.25,29.25 59.25,29.5 q 0,0.25 0.375,0.375 Q 60,30 60.5,30 M 59.625,27.875 Q 60,28 60.375,27.875 60.75,27.75 61,27.5 61.25,27.25 61.625,27.125 62,27 62.375,26.875 62.75,26.75 62.75,26.5 62.75,26.25 62.375,26.125 62,26 61.5,26 61,26 60.625,26.125 60.25,26.25 60,26.5 q -0.25,0.25 -0.5,0.5 -0.25,0.25 -0.25,0.5 0,0.25 0.375,0.375 M 64.0625,29.4375 64.25,29.25 64.3125,29.1875 64.375,29.125 64.25,29.25 Q 64.125,29.375 64,29.5 l -0.125,0.125 0.1875,-0.1875 m 0.25,-3.625 L 64.25,25.75 64.0625,25.5625 63.875,25.375 64,25.5 q 0.125,0.125 0.25,0.25 l 0.125,0.125 -0.0625,-0.0625"
         style="fill:#ffffff;fill-opacity:1" />
      <path
         id="path3377"
         d="m 43.125,3.625 q 0.125,-0.375 0.5,-0.5 0.375,-0.125 0.75,0 0.375,0.125 0.5,0.5 Q 45,4 45.125,4.375 45.25,4.75 45.625,4.875 46,5 46.5,5 q 0.5,0 1,0 0.5,0 1,0 0.5,0 0.875,0.125 0.375,0.125 0.5,0.5 0.125,0.375 0,0.75 -0.125,0.375 -0.5,0.5 Q 49,7 48.5,7 48,7 47.5,7 L 47,7 47.375,7 47.75,7 47.5,7 Q 47.25,7 47.125,7.125 L 47,7.25 47.0625,7.1875 47.125,7.125 46.5625,7.0625 Q 46,7 45.5,7 L 45,7 45,6.5 Q 45,6 44.875,5.625 44.75,5.25 44.375,5.125 44,5 43.625,5.125 43.25,5.25 43.125,5.625 43,6 42.875,6.375 42.75,6.75 42.375,6.875 42,7 41.5,7 41,7 41,6.5 41,6 41.125,5.625 41.25,5.25 41.625,5.125 42,5 42.375,4.875 42.75,4.75 42.875,4.375 43,4 43.125,3.625 M 45,6.625 45,7 45,7.125 45,7.25 45,7 q 0,-0.25 0,-0.5 l 0,-0.25 0,0.375"
         style="fill:#b7080e;fill-opacity:1" />
      <path
         id="path3379"
         d="m 43.125,5.625 q 0.125,-0.375 0.5,-0.5 0.375,-0.125 0.75,0 0.375,0.125 0.5,0.5 Q 45,6 45,6.5 45,7 45,7.5 45,8 44.875,8.375 44.75,8.75 44.375,8.875 44,9 43.4375,9.0625 L 42.875,9.125 42.9375,9.1875 43,9.25 42.875,9.125 Q 42.75,9 42.5,9 L 42.25,9 42.625,9 43,9 42.5,9 q -0.5,0 -0.875,0.125 -0.375,0.125 -0.5,0.5 -0.125,0.375 0,0.75 0.125,0.375 0.5,0.5 Q 42,11 42.5,11 l 0.5,0 -0.375,0 -0.375,0 0.25,0 q 0.25,0 0.375,-0.125 L 43,10.75 42.9375,10.8125 42.875,10.875 43.4375,10.9375 Q 44,11 44.5,11 q 0.5,0 1,0 0.5,0 1,0 l 0.5,0 0,0.5 q 0,0.5 0,1 0,0.5 0,1 0,0.5 0.125,0.875 0.125,0.375 0.5,0.5 Q 48,15 48.5,15 q 0.5,0 0.875,0.125 0.375,0.125 0.5,0.5 Q 50,16 50,16.5 q 0,0.5 0,1 0,0.5 0,1 0,0.5 0,1 0,0.5 0,1 0,0.5 0,1 0,0.5 0,1 0,0.5 0,1 0,0.5 0,1 0,0.5 0,1 0,0.5 0.04687,1.046875 l 0.04687,0.546875 -0.421875,-0.171875 Q 49.25,26.75 49.125,26.375 49,26 48.625,25.875 48.25,25.75 47.984375,26.015625 L 47.71875,26.28125 47.79688,26.32812 47.875,26.375 47.71875,26.28125 Q 47.5625,26.1875 47.375,26.125 L 47.1875,26.0625 47.46875,26.15625 47.75,26.25 47.375,26.125 Q 47,26 46.5,26 46,26 45.5,26 45,26 44.625,26.125 L 44.25,26.25 44.53125,26.15625 44.8125,26.0625 44.625,26.125 q -0.1875,0.0625 -0.3125,0.1875 l -0.125,0.125 0.0625,-0.0625 0.0625,-0.0625 -0.28125,-0.28125 Q 43.75,25.75 43.375,25.875 43,26 42.625,25.875 42.25,25.75 41.984375,26.015625 L 41.71875,26.28125 41.79688,26.32812 41.875,26.375 41.71875,26.28125 Q 41.5625,26.1875 41.375,26.125 L 41.1875,26.0625 41.46875,26.15625 41.75,26.25 41.375,26.125 Q 41,26 40.5,26 40,26 39.5,26 39,26 38.625,26.125 L 38.25,26.25 38.53125,26.15625 38.8125,26.0625 38.625,26.125 q -0.1875,0.0625 -0.3125,0.1875 l -0.125,0.125 0.0625,-0.0625 0.0625,-0.0625 -0.28125,-0.28125 Q 37.75,25.75 37.5,25.75 q -0.25,0 -0.53125,0.28125 l -0.28125,0.28125 0.0625,0.0625 0.0625,0.0625 -0.125,-0.125 Q 36.5625,26.1875 36.375,26.125 L 36.1875,26.0625 36.46875,26.15625 36.75,26.25 36.375,26.125 Q 36,26 35.5,26 35,26 34.625,26.125 L 34.25,26.25 34.53125,26.15625 34.8125,26.0625 34.625,26.125 q -0.1875,0.0625 -0.34375,0.15625 L 34.125,26.375 34.20313,26.32813 34.28126,26.28126 34.015635,26.015635 Q 33.75,25.75 33.375,25.875 33,26 32.625,25.875 32.25,25.75 31.953125,26.015625 L 31.65625,26.28125 31.70312,26.32812 31.75,26.375 31.65625,26.28125 Q 31.5625,26.1875 31.375,26.125 L 31.1875,26.0625 31.46875,26.15625 31.75,26.25 31.375,26.125 31,26 l 0.375,0 0.375,0 -0.25,0 q -0.25,0 -0.40625,0.09375 l -0.15625,0.09375 0.07813,-0.04687 0.07813,-0.04687 -0.59375,0 -0.59375,0 0.07813,0.04687 0.07813,0.04687 -0.15625,-0.09375 Q 29.75,26 29.5,26 l -0.25,0 0.375,0 L 30,26 29.625,26.125 29.25,26.25 29.53125,26.15625 29.8125,26.0625 29.625,26.125 q -0.1875,0.0625 -0.3125,0.1875 l -0.125,0.125 0.0625,-0.0625 0.0625,-0.0625 -0.28125,-0.28125 Q 28.75,25.75 28.5,25.75 q -0.25,0 -0.53125,0.28125 l -0.28125,0.28125 0.0625,0.0625 0.0625,0.0625 -0.125,-0.125 Q 27.5625,26.1875 27.375,26.125 L 27.1875,26.0625 27.46875,26.15625 27.75,26.25 27.375,26.125 Q 27,26 26.5,26 26,26 25.625,26.125 L 25.25,26.25 25.53125,26.15625 25.8125,26.0625 25.625,26.125 q -0.1875,0.0625 -0.34375,0.15625 L 25.125,26.375 25.20313,26.32813 25.28126,26.28126 25.015635,26.015635 Q 24.75,25.75 24.375,25.875 24,26 23.875,26.375 23.75,26.75 23.5,26.75 23.25,26.75 23.125,26.375 23,26 22.625,25.875 22.25,25.75 21.984375,26.015625 L 21.71875,26.28125 21.79688,26.32812 21.875,26.375 21.71875,26.28125 Q 21.5625,26.1875 21.375,26.125 L 21.1875,26.0625 21.46875,26.15625 21.75,26.25 21.375,26.125 Q 21,26 20.5,26 l -0.5,0 0.375,0 0.375,0 -0.25,0 q -0.25,0 -0.40625,0.09375 l -0.15625,0.09375 0.07813,-0.04687 0.07813,-0.04687 -0.04687,-0.546875 Q 20,25 20.125,24.625 20.25,24.25 20.625,24.125 21,24 21.5,24 q 0.5,0 1,0 0.5,0 0.875,-0.125 0.375,-0.125 0.5,-0.5 Q 24,23 24,22.5 24,22 23.875,21.625 23.75,21.25 23.375,21.125 23,21 22.5,21 22,21 21.5,21 21,21 20.625,20.875 20.25,20.75 20.125,20.375 20,20 20,19.5 q 0,-0.5 0,-1 0,-0.5 0,-1 0,-0.5 0,-1 0,-0.5 0.125,-0.875 0.125,-0.375 0.5,-0.5 0.375,-0.125 0.75,0 0.375,0.125 0.5,0.5 0.125,0.375 0.25,0.75 0.125,0.375 0.5,0.5 Q 23,17 23.5,17 l 0.5,0 -0.375,0 -0.375,0 0.25,0 q 0.25,0 0.375,-0.125 L 24,16.75 23.9375,16.8125 23.875,16.875 24.4375,16.9375 Q 25,17 25.375,17.125 q 0.375,0.125 0.5,0.5 0.125,0.375 0.25,0.75 0.125,0.375 0.5,0.5 0.375,0.125 0.75,0.25 0.375,0.125 0.5,0.5 0.125,0.375 0.25,0.75 0.125,0.375 0.5,0.5 Q 29,21 29.5,21 q 0.5,0 1,0 0.5,0 1,0 0.5,0 1,0 0.5,0 1,0 0.5,0 0.875,-0.125 0.375,-0.125 0.5,-0.5 Q 35,20 35.125,19.625 35.25,19.25 35.625,19.125 36,19 36.375,18.875 36.75,18.75 36.875,18.375 37,18 37.125,17.625 37.25,17.25 37.625,17.125 38,17 38.375,16.875 38.75,16.75 38.875,16.375 39,16 39,15.5 q 0,-0.5 0,-1 0,-0.5 0,-1 0,-0.5 0,-1 0,-0.5 0,-1 0,-0.5 0,-1 0,-0.5 0,-1 Q 39,9 39,8.5 39,8 39.125,7.625 39.25,7.25 39.625,7.125 40,7 40.5625,6.9375 L 41.125,6.875 41.0625,6.8125 41,6.75 41.125,6.875 Q 41.25,7 41.5,7 L 41.75,7 41.375,7 41,7 41.5,7 Q 42,7 42.375,6.875 42.75,6.75 42.875,6.375 43,6 43.125,5.625 m 4,5.375 -0.125,0 -0.375,0 -0.375,0 0.25,0 q 0.25,0 0.5,0 l 0.25,0 -0.125,0"
         style="fill:#d5cabe;fill-opacity:1" />
      <path
         id="path3381"
         d="M 45,7.5 45,7 45.5,7 Q 46,7 46.5625,7.0625 L 47.125,7.125 47.1875,7.0625 47.25,7 47.125,7.125 Q 47,7.25 47,7.5 L 47,7.75 47,7.375 47,7 47,7.5 q 0,0.5 0.125,0.875 0.125,0.375 0.5,0.5 Q 48,9 48.5,9 q 0.5,0 0.875,0.125 0.375,0.125 0.5,0.5 0.125,0.375 0,0.75 -0.125,0.375 -0.5,0.5 Q 49,11 48.5,11 q -0.5,0 -1,0 -0.5,0 -1,0 -0.5,0 -1,0 -0.5,0 -1,0 -0.5,0 -1.0625,-0.0625 L 42.875,10.875 42.8125,10.9375 42.75,11 42.875,10.875 Q 43,10.75 43,10.5 l 0,-0.25 0,0.375 0,0.375 0,-0.5 q 0,-0.5 0,-1 L 43,9 43,9.375 43,9.75 43,9.5 Q 43,9.25 42.875,9.125 L 42.75,9 42.8125,9.0625 42.875,9.125 43.4375,9.0625 Q 44,9 44.375,8.875 44.75,8.75 44.875,8.375 45,8 45,7.5 M 45,6.875 45,7 45,7.375 45,7.75 45,7.5 Q 45,7.25 45,7 l 0,-0.25 0,0.125"
         style="fill:#ba8b54;fill-opacity:1" />
      <path
         id="path3383"
         d="m 22.125,9.625 q 0.125,-0.375 0.5,-0.5 0.375,-0.125 0.75,0 0.375,0.125 0.5,0.5 Q 24,10 24,10.5 q 0,0.5 0,1 0,0.5 0,1 0,0.5 0,1 0,0.5 0,1 0,0.5 0,1 0,0.5 0,1 Q 24,17 23.5,17 23,17 22.625,16.875 22.25,16.75 22.125,16.375 22,16 21.875,15.625 21.75,15.25 21.375,15.125 21,15 20.625,15.125 20.25,15.25 20.125,15.625 20,16 20,16.5 q 0,0.5 0,1 0,0.5 0,1 l 0,0.5 -0.5,0 Q 19,19 18.4375,19.0625 L 17.875,19.125 17.9375,19.1875 18,19.25 17.875,19.125 Q 17.75,19 17.5,19 l -0.25,0 0.375,0 0.375,0 -0.5,0 q -0.5,0 -0.875,-0.125 -0.375,-0.125 -0.5,-0.5 -0.125,-0.375 0,-0.75 0.125,-0.375 0.5,-0.5 0.375,-0.125 0.75,-0.25 0.375,-0.125 0.5,-0.5 0.125,-0.375 0,-0.75 -0.125,-0.375 -0.5,-0.5 Q 17,15 16.625,14.875 16.25,14.75 16.125,14.375 16,14 16.125,13.625 16.25,13.25 16.625,13.125 17,13 17.375,12.875 17.75,12.75 17.875,12.375 18,12 18.125,11.625 18.25,11.25 18.625,11.125 19,11 19.5,11 q 0.5,0 1,0 0.5,0 0.875,-0.125 0.375,-0.125 0.5,-0.5 Q 22,10 22.125,9.625 M 20,19.125 20,19 l 0,-0.375 0,-0.375 0,0.25 q 0,0.25 0,0.5 l 0,0.25 0,-0.125"
         style="fill:#686159;fill-opacity:1" />
      <path
         id="path3385"
         d="M 41.125,9.625 Q 41.25,9.25 41.625,9.125 42,9 42.5,9 43,9 43,9.5 43,10 43,10.5 43,11 42.5,11 42,11 41.625,10.875 41.25,10.75 41.125,10.375 41,10 41.125,9.625"
         style="fill:#000000;fill-opacity:1" />
      <path
         id="path3387"
         d="m 18,19.5 0,-0.5 0,0.375 0,0.375 0,-0.25 q 0,-0.25 -0.125,-0.375 L 17.75,19 l 0.0625,0.0625 0.0625,0.0625 0.5625,-0.0625 Q 19,19 19.5,19 l 0.5,0 0,0.5 q 0,0.5 0.125,0.875 0.125,0.375 0.5,0.5 Q 21,21 21.5,21 q 0.5,0 1,0 0.5,0 0.875,0.125 0.375,0.125 0.5,0.5 Q 24,22 24,22.5 q 0,0.5 -0.125,0.875 -0.125,0.375 -0.5,0.5 Q 23,24 22.5,24 q -0.5,0 -1,0 -0.5,0 -0.875,0.125 -0.375,0.125 -0.5,0.5 Q 20,25 20.046875,25.546875 l 0.04687,0.546875 -0.546875,-0.04687 Q 19,26 18.5,26 l -0.5,0 0,-0.5 q 0,-0.5 0,-1 0,-0.5 0,-1 0,-0.5 0,-1 0,-0.5 0,-1 0,-0.5 0,-1 0,-0.5 0,-1 M 20,19.375 20,19 20,18.875 20,18.75 20,19 q 0,0.25 0,0.5 l 0,0.25 0,-0.375"
         style="fill:#9c9287;fill-opacity:1" />
      <path
         id="path3389"
         d="M 8.125,25.625 Q 8.25,25.25 8.5,25 L 8.75,24.75 9,25 q 0.25,0.25 0.125,0.625 L 9,26 9,26.5 q 0,0.5 0,1 0,0.5 0,1 0,0.5 0.125,0.875 L 9.25,29.75 9.15625,29.46875 9.0625,29.1875 9.125,29.375 q 0.0625,0.1875 0.15625,0.34375 L 9.375,29.875 9.328125,29.796875 9.28125,29.71875 9.015625,29.984375 8.75,30.25 8.5,30 Q 8.25,29.75 8.125,29.375 8,29 8,28.5 8,28 8,27.5 8,27 8,26.5 8,26 8.125,25.625 M 8.5625,30.0625 8.75,30.25 8.8125,30.3125 8.875,30.375 8.75,30.25 Q 8.625,30.125 8.5,30 l -0.125,-0.125 0.1875,0.1875 m 0.25,-5.375 L 8.75,24.75 8.5625,24.9375 8.375,25.125 8.5,25 q 0.125,-0.125 0.25,-0.25 l 0.125,-0.125 -0.0625,0.0625"
         style="fill:#ffffff;fill-opacity:0.13333333" />
      <path
         id="path3391"
         d="m 10.125,25.625 q 0.125,-0.375 0.5,-0.5 Q 11,25 11.5,25 q 0.5,0 0.875,0.125 0.375,0.125 0.375,0.375 0,0.25 -0.375,0.375 Q 12,26 11.625,26.125 11.25,26.25 11.25,26.5 q 0,0.25 0.375,0.375 0.375,0.125 0.75,0 Q 12.75,26.75 13,26.5 q 0.25,-0.25 0.5,-0.25 0.25,0 0.25,0.25 0,0.25 -0.25,0.5 -0.25,0.25 -0.25,0.5 0,0.25 0.25,0.5 0.25,0.25 0.25,0.5 0,0.25 -0.25,0.25 -0.25,0 -0.5,-0.25 Q 12.75,28.25 12.375,28.125 12,28 11.625,28.125 11.25,28.25 11.25,28.5 q 0,0.25 0.375,0.375 0.375,0.125 0.75,0.25 0.375,0.125 0.375,0.375 0,0.25 -0.375,0.375 Q 12,30 11.5,30 11,30 10.625,29.875 10.25,29.75 10.125,29.375 10,29 10,28.5 q 0,-0.5 0,-1 0,-0.5 0,-1 l 0,-0.5 0.125,-0.375"
         style="fill:#000000;fill-opacity:1" />
      <path
         id="path3393"
         d="m 9,26.5 0,-0.5 0.5,0 0.5,0 0,0.5 q 0,0.5 0,1 0,0.5 0,1 0,0.5 0.125,0.875 L 10.25,29.75 10.15625,29.46875 10.0625,29.1875 10.125,29.375 q 0.0625,0.1875 0.1875,0.3125 l 0.125,0.125 L 10.375,29.75 10.3125,29.6875 10.03125,29.96875 Q 9.75,30.25 9.5,30 9.25,29.75 9.125,29.375 9,29 9,28.5 9,28 9,27.5 9,27 9,26.5"
         style="fill:#ededed;fill-opacity:1" />
      <path
         id="path3395"
         d="M 15.125,26.625 Q 15.25,26.25 15.5,26.25 q 0.25,0 0.5,0.25 0.25,0.25 0.5,0.25 0.25,0 0.5,-0.25 0.25,-0.25 0.625,-0.375 L 18,26 l 0,0.5 0,0.5 0,-0.375 0,-0.375 0,0.25 q 0,0.25 0.03125,0.46875 L 18.0625,27.1875 18.04687,27.078125 18.03124,26.96875 17.640615,27.109375 Q 17.25,27.25 17,27.5 16.75,27.75 16.5,28 16.25,28.25 16.125,28.625 16,29 15.875,29.375 15.75,29.75 15.5,29.75 15.25,29.75 15.125,29.375 15,29 15,28.5 15,28 15,27.5 15,27 15.125,26.625 M 18,26.375 18,26 18,25.875 18,25.75 18,26 q 0,0.25 0,0.5 l 0,0.25 0,-0.375"
         style="fill:#000000;fill-opacity:1" />
      <path
         id="path3397"
         d="m 18,26.5 0,-0.5 0.5,0 q 0.5,0 1.046875,0.04687 L 20.09375,26.09374 20.17188,26.04687 20.25,26 20.09375,26.09375 Q 19.9375,26.1875 19.875,26.375 L 19.8125,26.5625 19.90625,26.28125 20,26 19.875,26.375 Q 19.75,26.75 19.5,27 19.25,27.25 19.125,27.625 L 19,28 19.09375,27.71875 19.1875,27.4375 19.125,27.625 Q 19.0625,27.8125 19.0625,28 l 0,0.1875 0,-0.09375 0,-0.09375 -0.40625,-0.125 Q 18.25,27.75 18.125,27.375 18,27 18,26.5"
         style="fill:#877f75;fill-opacity:1" />
      <path
         id="path3399"
         d="M 19.875,26.375 Q 20,26 20.5,26 21,26 21.375,26.125 21.75,26.25 22,26.5 q 0.25,0.25 0.5,0.5 0.25,0.25 0.375,0.625 0.125,0.375 0,0.75 Q 22.75,28.75 22.5,29 22.25,29.25 22,29.5 21.75,29.75 21.375,29.875 21,30 20.484375,30.015625 L 19.96875,30.031255 19.98438,30.14063 20,30.25 19.96875,30.03125 Q 19.9375,29.8125 19.875,29.625 L 19.8125,29.4375 19.90625,29.71875 20,30 19.875,29.625 Q 19.75,29.25 19.5,29 19.25,28.75 19.125,28.375 19,28 19.125,27.625 19.25,27.25 19.5,27 q 0.25,-0.25 0.375,-0.625 m 0.75,2.5 q 0.375,0.125 0.75,0 0.375,-0.125 0.5,-0.5 0.125,-0.375 0,-0.75 -0.125,-0.375 -0.5,-0.5 -0.375,-0.125 -0.75,0 -0.375,0.125 -0.5,0.5 -0.125,0.375 0,0.75 0.125,0.375 0.5,0.5"
         style="fill:#000000;fill-opacity:1" />
      <path
         id="path3401"
         d="M 22,26.5 21.75,26.25 21.9375,26.4375 22.125,26.625 22,26.5 q -0.125,-0.125 -0.28125,-0.21875 l -0.15625,-0.09375 0.07813,0.04687 0.07813,0.04687 0.265625,-0.265625 Q 22.25,25.75 22.625,25.875 23,26 23.125,26.375 23.25,26.75 23.5,26.75 q 0.25,0 0.375,-0.375 0.125,-0.375 0.5,-0.5 0.375,-0.125 0.640625,0.140625 l 0.265625,0.265625 0.07813,-0.04687 0.07813,-0.04687 -0.15625,0.09375 Q 25.125,26.375 25,26.5 L 24.875,26.625 25.0625,26.4375 25.25,26.25 25,26.5 q -0.25,0.25 -0.5,0.5 -0.25,0.25 -0.375,0.625 -0.125,0.375 0,0.75 L 24.25,28.75 24.15625,28.46875 24.0625,28.1875 24.125,28.375 q 0.0625,0.1875 0.15625,0.34375 L 24.375,28.875 24.328125,28.796875 24.28125,28.71875 24.015625,29.015625 23.75,29.3125 23.8125,29.34375 23.875,29.375 23.75,29.3125 Q 23.625,29.25 23.5,29.25 l -0.125,0 0.1875,0 0.1875,0 -0.25,0 q -0.25,0 -0.375,0.375 Q 23,30 22.625,30.125 L 22.25,30.25 22.53125,30.15625 22.8125,30.0625 22.625,30.125 q -0.1875,0.0625 -0.3125,0.1875 l -0.125,0.125 0.0625,-0.0625 0.0625,-0.0625 -0.296875,-0.296875 -0.296875,-0.296875 -0.07813,0.04687 -0.07813,0.04687 0.15625,-0.09375 Q 21.875,29.625 22,29.5 L 22.125,29.375 21.9375,29.5625 21.75,29.75 22,29.5 Q 22.25,29.25 22.5,29 22.75,28.75 22.875,28.375 23,28 22.875,27.625 22.75,27.25 22.5,27 22.25,26.75 22,26.5"
         style="fill:#b9afa5;fill-opacity:1" />
      <path
         id="path3403"
         d="M 25,26.5 Q 25.25,26.25 25.625,26.125 26,26 26.5,26 q 0.5,0 0.875,0.125 0.375,0.125 0.5,0.5 Q 28,27 28,27.5 q 0,0.5 0,1 0,0.5 0,1 l 0,0.5 -0.125,0.375 Q 27.75,30.75 27.5,31 27.25,31.25 27,31.5 26.75,31.75 26.375,31.875 26,32 25.625,31.875 25.25,31.75 25.25,31.5 q 0,-0.25 0.375,-0.375 Q 26,31 26.375,30.875 26.75,30.75 26.75,30.5 26.75,30.25 26.375,30.125 26,30 25.5,30 25,30 24.875,29.625 24.75,29.25 24.5,29 24.25,28.75 24.125,28.375 24,28 24.125,27.625 24.25,27.25 24.5,27 24.75,26.75 25,26.5 M 25.625,28.875 26,29 26.375,28.875 q 0.375,-0.125 0.5,-0.5 0.125,-0.375 0,-0.75 -0.125,-0.375 -0.5,-0.5 -0.375,-0.125 -0.75,0 -0.375,0.125 -0.5,0.5 L 25,28 l 0.125,0.375 q 0.125,0.375 0.5,0.5"
         style="fill:#000000;fill-opacity:1" />
      <path
         id="path3405"
         d="M 27.875,26.625 27.75,26.25 27.84375,26.53125 27.9375,26.8125 27.875,26.625 q -0.0625,-0.1875 -0.1875,-0.3125 l -0.125,-0.125 0.0625,0.0625 0.0625,0.0625 0.28125,-0.28125 Q 28.25,25.75 28.5,25.75 q 0.25,0 0.53125,0.28125 l 0.28125,0.28125 0.0625,-0.0625 0.0625,-0.0625 -0.125,0.125 q -0.125,0.125 -0.1875,0.3125 L 29.0625,26.8125 29.15625,26.53125 29.25,26.25 29.125,26.625 Q 29,27 29,27.5 q 0,0.5 0,1 0,0.5 0.125,0.875 L 29.25,29.75 29.15625,29.46875 29.0625,29.1875 29.125,29.375 q 0.0625,0.1875 0.15625,0.28125 L 29.375,29.75 29.328125,29.703125 29.28125,29.65625 28.984375,29.984375 28.6875,30.3125 28.75,30.375 l 0.0625,0.0625 -0.125,-0.125 Q 28.5625,30.1875 28.375,30.125 L 28.1875,30.0625 28.46875,30.15625 28.75,30.25 28.375,30.125 28,30 28,29.5 q 0,-0.5 0,-1 0,-0.5 0,-1 0,-0.5 -0.125,-0.875"
         style="fill:#b9afa5;fill-opacity:1" />
      <path
         id="path3407"
         d="m 29.125,26.625 q 0.125,-0.375 0.5,-0.5 0.375,-0.125 0.5,0.25 0.125,0.375 0.375,0.375 0.25,0 0.375,-0.375 0.125,-0.375 0.5,-0.25 0.375,0.125 0.375,0.375 0,0.25 -0.25,0.5 -0.25,0.25 -0.5,0.5 -0.25,0.25 -0.5,0.5 -0.25,0.25 -0.375,0.625 Q 30,29 29.875,29.375 29.75,29.75 29.5,29.75 29.25,29.75 29.125,29.375 29,29 29,28.5 q 0,-0.5 0,-1 0,-0.5 0.125,-0.875"
         style="fill:#000000;fill-opacity:1" />
      <path
         id="path3409"
         d="M 30.125,26.375 30,26 30.09375,26.28125 30.1875,26.5625 30.125,26.375 Q 30.0625,26.1875 29.90625,26.09375 L 29.75,26 l 0.07813,0.04687 0.07813,0.04687 0.59375,0 0.59375,0 0.07813,-0.04687 L 31.25,26 31.09375,26.09375 Q 30.9375,26.1875 30.875,26.375 L 30.8125,26.5625 30.90625,26.28125 31,26 30.875,26.375 Q 30.75,26.75 30.5,26.75 q -0.25,0 -0.375,-0.375"
         style="fill:#9c948b;fill-opacity:1" />
      <path
         id="path3411"
         d="m 31.75,26.5 0,-0.25 0,0.1875 0,0.1875 0,-0.125 q 0,-0.125 -0.09375,-0.21875 l -0.09375,-0.09375 0.04687,0.04687 0.04687,0.04687 0.296875,-0.265625 Q 32.25,25.75 32.625,25.875 q 0.375,0.125 0.75,0 0.375,-0.125 0.640625,0.140625 l 0.265625,0.265625 0.07813,-0.04687 0.07813,-0.04687 -0.15625,0.09375 Q 34.125,26.375 34,26.5 L 33.875,26.625 34.0625,26.4375 34.25,26.25 34,26.5 Q 33.75,26.75 33.5,27 33.25,27.25 33.125,27.625 33,28 33.125,28.375 33.25,28.75 33.5,29 33.75,29.25 34,29.5 L 34.25,29.75 34.0625,29.5625 33.875,29.375 34,29.5 q 0.125,0.125 0.28125,0.21875 l 0.15625,0.09375 -0.07813,-0.04687 -0.07813,-0.04687 -0.265625,0.265625 Q 33.75,30.25 33.375,30.125 33,30 32.875,29.625 32.75,29.25 32.375,29.125 32,29 32,28.5 32,28 31.625,28.125 q -0.375,0.125 -0.5,0.5 -0.125,0.375 0,0.75 0.125,0.375 -0.140625,0.671875 l -0.265625,0.296875 0.04687,0.04687 0.04687,0.04687 -0.09375,-0.09375 Q 30.625,30.25 30.5,30.25 l -0.125,0 0.1875,0 0.1875,0 -0.25,0 q -0.25,0 -0.515625,-0.296875 L 29.71875,29.65625 29.671875,29.703125 29.625,29.75 29.71875,29.65625 Q 29.8125,29.5625 29.875,29.375 L 29.9375,29.1875 29.84375,29.46875 29.75,29.75 29.875,29.375 Q 30,29 30.125,28.625 30.25,28.25 30.5,28 q 0.25,-0.25 0.5,-0.5 0.25,-0.25 0.5,-0.5 0.25,-0.25 0.25,-0.5"
         style="fill:#b9afa5;fill-opacity:1" />
      <path
         id="path3413"
         d="M 34,26.5 Q 34.25,26.25 34.625,26.125 35,26 35.5,26 q 0.5,0 0.875,0.125 0.375,0.125 0.5,0.5 Q 37,27 37,27.5 q 0,0.5 0,1 0,0.5 -0.125,0.875 -0.125,0.375 -0.5,0.5 Q 36,30 35.5,30 35,30 34.625,29.875 34.25,29.75 34,29.5 33.75,29.25 33.5,29 33.25,28.75 33.125,28.375 33,28 33.125,27.625 33.25,27.25 33.5,27 33.75,26.75 34,26.5 m 0.625,2.375 q 0.375,0.125 0.75,0 0.375,-0.125 0.5,-0.5 0.125,-0.375 0,-0.75 -0.125,-0.375 -0.5,-0.5 -0.375,-0.125 -0.75,0 -0.375,0.125 -0.5,0.5 -0.125,0.375 0,0.75 0.125,0.375 0.5,0.5"
         style="fill:#000000;fill-opacity:1" />
      <path
         id="path3415"
         d="M 36.875,26.625 36.75,26.25 36.84375,26.53125 36.9375,26.8125 36.875,26.625 q -0.0625,-0.1875 -0.1875,-0.3125 l -0.125,-0.125 0.0625,0.0625 0.0625,0.0625 0.28125,-0.28125 Q 37.25,25.75 37.5,25.75 q 0.25,0 0.53125,0.28125 l 0.28125,0.28125 0.0625,-0.0625 0.0625,-0.0625 -0.125,0.125 q -0.125,0.125 -0.1875,0.3125 L 38.0625,26.8125 38.15625,26.53125 38.25,26.25 38.125,26.625 Q 38,27 38,27.5 q 0,0.5 0,1 0,0.5 0.125,0.875 L 38.25,29.75 38.15625,29.46875 38.0625,29.1875 38.125,29.375 q 0.0625,0.1875 0.1875,0.3125 l 0.125,0.125 L 38.375,29.75 38.3125,29.6875 38.03125,29.96875 Q 37.75,30.25 37.5,30.25 q -0.25,0 -0.53125,-0.28125 L 36.6875,29.6875 36.625,29.75 l -0.0625,0.0625 0.125,-0.125 q 0.125,-0.125 0.1875,-0.3125 L 36.9375,29.1875 36.84375,29.46875 36.75,29.75 36.875,29.375 Q 37,29 37,28.5 37,28 37,27.5 37,27 36.875,26.625"
         style="fill:#b9afa5;fill-opacity:1" />
      <path
         id="path3417"
         d="m 38.125,26.625 q 0.125,-0.375 0.5,-0.5 Q 39,26 39.5,26 q 0.5,0 1,0 0.5,0 0.875,0.125 0.375,0.125 0.625,0.375 0.25,0.25 0.5,0.5 0.25,0.25 0.375,0.625 Q 43,28 43,28.5 q 0,0.5 -0.125,0.875 -0.125,0.375 -0.5,0.5 Q 42,30 42,29.5 42,29 42,28.5 42,28 41.875,27.625 41.75,27.25 41.5,27.25 q -0.25,0 -0.375,0.375 Q 41,28 41,28.5 41,29 41,29.5 41,30 40.5,30 40,30 40,29.5 40,29 40,28.5 40,28 39.875,27.625 39.75,27.25 39.5,27.25 q -0.25,0 -0.375,0.375 Q 39,28 39,28.5 q 0,0.5 0,1 0,0.5 -0.375,0.375 -0.375,-0.125 -0.5,-0.5 Q 38,29 38,28.5 q 0,-0.5 0,-1 0,-0.5 0.125,-0.875"
         style="fill:#000000;fill-opacity:1" />
      <path
         id="path3419"
         d="M 42,26.5 41.75,26.25 41.9375,26.4375 42.125,26.625 42,26.5 q -0.125,-0.125 -0.28125,-0.21875 l -0.15625,-0.09375 0.07813,0.04687 0.07813,0.04687 0.265625,-0.265625 Q 42.25,25.75 42.625,25.875 q 0.375,0.125 0.75,0 0.375,-0.125 0.65625,0.15625 l 0.28125,0.28125 0.0625,-0.0625 0.0625,-0.0625 -0.125,0.125 q -0.125,0.125 -0.1875,0.3125 L 44.0625,26.8125 44.15625,26.53125 44.25,26.25 44.125,26.625 Q 44,27 44,27.5 q 0,0.5 0,1 0,0.5 0.125,0.875 L 44.25,29.75 44.15625,29.46875 44.0625,29.1875 44.125,29.375 q 0.0625,0.1875 0.1875,0.3125 l 0.125,0.125 L 44.375,29.75 44.3125,29.6875 44.03125,29.96875 Q 43.75,30.25 43.5,30.25 q -0.25,0 -0.53125,-0.28125 L 42.6875,29.6875 42.625,29.75 l -0.0625,0.0625 0.125,-0.125 q 0.125,-0.125 0.1875,-0.3125 L 42.9375,29.1875 42.84375,29.46875 42.75,29.75 42.875,29.375 Q 43,29 43,28.5 43,28 42.875,27.625 42.75,27.25 42.5,27 42.25,26.75 42,26.5"
         style="fill:#b9afa5;fill-opacity:1" />
      <path
         id="path3421"
         d="m 44.125,26.625 q 0.125,-0.375 0.5,-0.5 Q 45,26 45.5,26 q 0.5,0 1,0 0.5,0 0.875,0.125 0.375,0.125 0.625,0.375 0.25,0.25 0.5,0.5 0.25,0.25 0.375,0.625 Q 49,28 49,28.5 q 0,0.5 -0.125,0.875 -0.125,0.375 -0.5,0.5 Q 48,30 48,29.5 48,29 48,28.5 48,28 47.875,27.625 47.75,27.25 47.5,27.25 q -0.25,0 -0.375,0.375 Q 47,28 47,28.5 47,29 47,29.5 47,30 46.5,30 46,30 46,29.5 46,29 46,28.5 46,28 45.875,27.625 45.75,27.25 45.5,27.25 q -0.25,0 -0.375,0.375 Q 45,28 45,28.5 q 0,0.5 0,1 0,0.5 -0.375,0.375 -0.375,-0.125 -0.5,-0.5 Q 44,29 44,28.5 q 0,-0.5 0,-1 0,-0.5 0.125,-0.875"
         style="fill:#000000;fill-opacity:1" />
      <path
         id="path3423"
         d="M 48,26.5 47.75,26.25 47.9375,26.4375 48.125,26.625 48,26.5 q -0.125,-0.125 -0.28125,-0.21875 l -0.15625,-0.09375 0.07813,0.04687 0.07813,0.04687 0.265625,-0.265625 Q 48.25,25.75 48.625,25.875 q 0.375,0.125 0.5,0.5 0.125,0.375 0.546875,0.546875 l 0.421875,0.171875 0.04687,-0.07813 0.04687,-0.07813 -0.09375,0.15625 Q 50,27.25 50,27.5 l 0,0.25 0,-0.375 0,-0.375 0,0.5 q 0,0.5 0,1 l 0,0.5 0,-0.375 0,-0.375 0,0.25 q 0,0.25 0.09375,0.40625 L 50.1875,29.0625 50.14063,28.98437 50.09376,28.90624 50.04689,29.453115 50,30 49.625,30.125 Q 49.25,30.25 48.96875,29.96875 L 48.6875,29.6875 48.625,29.75 l -0.0625,0.0625 0.125,-0.125 q 0.125,-0.125 0.1875,-0.3125 L 48.9375,29.1875 48.84375,29.46875 48.75,29.75 48.875,29.375 Q 49,29 49,28.5 49,28 48.875,27.625 48.75,27.25 48.5,27 48.25,26.75 48,26.5"
         style="fill:#b9afa5;fill-opacity:1" />
      <path
         id="path3425"
         d="m 51,26.5 q 0.25,-0.25 0.625,-0.375 0.375,-0.125 0.75,0 0.375,0.125 0.625,0.375 0.25,0.25 0.5,0.5 0.25,0.25 0.25,0.5 0,0.25 -0.375,0.375 Q 53,28 52.625,27.875 52.25,27.75 52,27.5 q -0.25,-0.25 -0.5,-0.25 -0.25,0 -0.25,0.25 0,0.25 0.25,0.5 0.25,0.25 0.5,0.5 0.25,0.25 0.5,0.5 0.25,0.25 0.25,0.5 0,0.25 -0.375,0.375 Q 52,30 51.625,29.875 51.25,29.75 51,29.5 50.75,29.25 50.375,29.125 50,29 50,28.5 50,28 50,27.5 50,27 50.375,26.875 50.75,26.75 51,26.5"
         style="fill:#000000;fill-opacity:1" />
      <path
         id="path3427"
         d="M 55.125,26.625 Q 55.25,26.25 55.5,26.25 q 0.25,0 0.5,0.25 0.25,0.25 0.5,0.25 0.25,0 0.5,-0.25 0.25,-0.25 0.5,-0.25 0.25,0 0.25,0.25 0,0.25 -0.25,0.5 -0.25,0.25 -0.5,0.5 -0.25,0.25 -0.5,0.5 -0.25,0.25 -0.375,0.625 Q 56,29 55.875,29.375 55.75,29.75 55.5,29.75 55.25,29.75 55.125,29.375 55,29 55,28.5 q 0,-0.5 0,-1 0,-0.5 0.125,-0.875"
         style="fill:#000000;fill-opacity:1" />
      <path
         id="path3429"
         d="M 60,26.5 Q 60.25,26.25 60.625,26.125 61,26 61.5,26 q 0.5,0 0.875,0.125 0.375,0.125 0.375,0.375 0,0.25 -0.375,0.375 Q 62,27 61.625,27.125 61.25,27.25 61,27.5 60.75,27.75 60.375,27.875 60,28 59.625,27.875 59.25,27.75 59.25,27.5 q 0,-0.25 0.25,-0.5 0.25,-0.25 0.5,-0.5"
         style="fill:#000000;fill-opacity:1" />
      <path
         id="path3431"
         d="M 63.75,26.5 Q 63.75,26.25 64,26 L 64.25,25.75 64.5,26 q 0.25,0.25 0.25,0.5 0,0.25 -0.25,0.5 L 64.25,27.25 64.4375,27.0625 64.625,26.875 64.5,27 q -0.125,0.125 -0.1875,0.25 L 64.25,27.375 64.28125,27.3125 64.3125,27.25 64.03125,27 Q 63.75,26.75 63.75,26.5 M 64.4375,25.9375 64.25,25.75 64.1875,25.6875 64.125,25.625 64.25,25.75 q 0.125,0.125 0.25,0.25 l 0.125,0.125 -0.1875,-0.1875"
         style="fill:#ffffff;fill-opacity:0.13333333" />
      <path
         id="path3433"
         d="m 20.125,27.625 q 0.125,-0.375 0.5,-0.5 0.375,-0.125 0.75,0 0.375,0.125 0.5,0.5 0.125,0.375 0,0.75 -0.125,0.375 -0.5,0.5 -0.375,0.125 -0.75,0 -0.375,-0.125 -0.5,-0.5 -0.125,-0.375 0,-0.75"
         style="fill:#877f75;fill-opacity:1" />
      <path
         id="path3435"
         d="m 25.125,27.625 q 0.125,-0.375 0.5,-0.5 0.375,-0.125 0.75,0 0.375,0.125 0.5,0.5 0.125,0.375 0,0.75 -0.125,0.375 -0.5,0.5 L 26,29 26,28.5 Q 26,28 25.5,28 l -0.5,0 0.125,-0.375"
         style="fill:#b9afa5;fill-opacity:1" />
      <path
         id="path3437"
         d="m 34.125,27.625 q 0.125,-0.375 0.5,-0.5 0.375,-0.125 0.75,0 0.375,0.125 0.5,0.5 0.125,0.375 0,0.75 -0.125,0.375 -0.5,0.5 -0.375,0.125 -0.75,0 -0.375,-0.125 -0.5,-0.5 -0.125,-0.375 0,-0.75"
         style="fill:#b9afa5;fill-opacity:1" />
      <path
         id="path3439"
         d="M 39.125,27.625 Q 39.25,27.25 39.5,27.25 q 0.25,0 0.375,0.375 Q 40,28 40,28.5 q 0,0.5 0,1 l 0,0.5 0,-0.375 0,-0.375 0,0.25 q 0,0.25 0.125,0.375 L 40.25,30 40.1875,29.9375 40.125,29.875 l -0.625,0 -0.625,0 -0.0625,0.0625 L 38.75,30 38.875,29.875 Q 39,29.75 39,29.5 l 0,-0.25 0,0.375 0,0.375 0,-0.5 q 0,-0.5 0,-1 0,-0.5 0.125,-0.875"
         style="fill:#9c948b;fill-opacity:1" />
      <path
         id="path3441"
         d="M 41.125,27.625 Q 41.25,27.25 41.5,27.25 q 0.25,0 0.375,0.375 Q 42,28 42,28.5 q 0,0.5 0,1 l 0,0.5 0,-0.375 0,-0.375 0,0.25 q 0,0.25 0.125,0.375 L 42.25,30 42.1875,29.9375 42.125,29.875 l -0.625,0 -0.625,0 -0.0625,0.0625 L 40.75,30 40.875,29.875 Q 41,29.75 41,29.5 l 0,-0.25 0,0.375 0,0.375 0,-0.5 q 0,-0.5 0,-1 0,-0.5 0.125,-0.875"
         style="fill:#9c948b;fill-opacity:1" />
      <path
         id="path3443"
         d="M 45.125,27.625 Q 45.25,27.25 45.5,27.25 q 0.25,0 0.375,0.375 Q 46,28 46,28.5 q 0,0.5 0,1 l 0,0.5 0,-0.375 0,-0.375 0,0.25 q 0,0.25 0.125,0.375 L 46.25,30 46.1875,29.9375 46.125,29.875 l -0.625,0 -0.625,0 -0.0625,0.0625 L 44.75,30 44.875,29.875 Q 45,29.75 45,29.5 l 0,-0.25 0,0.375 0,0.375 0,-0.5 q 0,-0.5 0,-1 0,-0.5 0.125,-0.875"
         style="fill:#9c948b;fill-opacity:1" />
      <path
         id="path3445"
         d="M 47.125,27.625 Q 47.25,27.25 47.5,27.25 q 0.25,0 0.375,0.375 Q 48,28 48,28.5 q 0,0.5 0,1 l 0,0.5 0,-0.375 0,-0.375 0,0.25 q 0,0.25 0.125,0.375 L 48.25,30 48.1875,29.9375 48.125,29.875 l -0.625,0 -0.625,0 -0.0625,0.0625 L 46.75,30 46.875,29.875 Q 47,29.75 47,29.5 l 0,-0.25 0,0.375 0,0.375 0,-0.5 q 0,-0.5 0,-1 0,-0.5 0.125,-0.875"
         style="fill:#9c948b;fill-opacity:1" />
      <path
         id="path3447"
         d="M 25.125,28.375 25,28 l 0.5,0 q 0.5,0 0.5,0.5 l 0,0.5 -0.375,-0.125 q -0.375,-0.125 -0.5,-0.5"
         style="fill:#877f75;fill-opacity:1" />
      <path
         id="path3449"
         d="m 31.125,28.625 q 0.125,-0.375 0.5,-0.5 Q 32,28 32,28.5 q 0,0.5 0.375,0.625 0.375,0.125 0.5,0.5 0.125,0.375 0.5,0.5 0.375,0.125 0.640625,-0.140625 L 34.28125,29.71875 34.203125,29.671875 34.125,29.625 34.28125,29.71875 Q 34.4375,29.8125 34.625,29.875 L 34.8125,29.9375 34.53125,29.84375 34.25,29.75 34.625,29.875 Q 35,30 35.5,30 36,30 36.375,29.875 L 36.75,29.75 36.46875,29.84375 36.1875,29.9375 36.375,29.875 q 0.1875,-0.0625 0.3125,-0.1875 l 0.125,-0.125 -0.0625,0.0625 -0.0625,0.0625 0.28125,0.28125 Q 37.25,30.25 37.5,30.25 q 0.25,0 0.53125,-0.28125 L 38.3125,29.6875 38.25,29.625 l -0.0625,-0.0625 0.125,0.125 q 0.125,0.125 0.3125,0.1875 L 38.8125,29.9375 38.53125,29.84375 38.25,29.75 38.625,29.875 39,30 l -0.375,0 -0.375,0 0.25,0 q 0.25,0 0.375,-0.125 L 39,29.75 l -0.0625,0.0625 -0.0625,0.0625 0.625,0 0.625,0 L 40.0625,29.8125 40,29.75 40.125,29.875 Q 40.25,30 40.5,30 l 0.25,0 -0.375,0 -0.375,0 0.5,0 0.5,0 -0.375,0 -0.375,0 0.25,0 q 0.25,0 0.375,-0.125 L 41,29.75 l -0.0625,0.0625 -0.0625,0.0625 0.625,0 0.625,0 L 42.0625,29.8125 42,29.75 42.125,29.875 Q 42.25,30 42.5,30 l 0.25,0 -0.375,0 L 42,30 42.375,29.875 42.75,29.75 42.46875,29.84375 42.1875,29.9375 42.375,29.875 q 0.1875,-0.0625 0.3125,-0.1875 l 0.125,-0.125 -0.0625,0.0625 -0.0625,0.0625 0.28125,0.28125 Q 43.25,30.25 43.5,30.25 q 0.25,0 0.53125,-0.28125 L 44.3125,29.6875 44.25,29.625 l -0.0625,-0.0625 0.125,0.125 q 0.125,0.125 0.3125,0.1875 L 44.8125,29.9375 44.53125,29.84375 44.25,29.75 44.625,29.875 45,30 l -0.375,0 -0.375,0 0.25,0 q 0.25,0 0.375,-0.125 L 45,29.75 l -0.0625,0.0625 -0.0625,0.0625 0.625,0 0.625,0 L 46.0625,29.8125 46,29.75 46.125,29.875 Q 46.25,30 46.5,30 l 0.25,0 -0.375,0 -0.375,0 0.5,0 0.5,0 -0.375,0 -0.375,0 0.25,0 q 0.25,0 0.375,-0.125 L 47,29.75 l -0.0625,0.0625 -0.0625,0.0625 0.625,0 0.625,0 L 48.0625,29.8125 48,29.75 48.125,29.875 Q 48.25,30 48.5,30 l 0.25,0 -0.375,0 L 48,30 48.375,29.875 48.75,29.75 48.46875,29.84375 48.1875,29.9375 48.375,29.875 q 0.1875,-0.0625 0.3125,-0.1875 l 0.125,-0.125 -0.0625,0.0625 -0.0625,0.0625 0.28125,0.28125 Q 49.25,30.25 49.625,30.125 L 50,30 l 0,0.5 q 0,0.5 -0.125,0.875 -0.125,0.375 -0.5,0.5 Q 49,32 48.5,32 48,32 47.625,32.125 47.25,32.25 47.125,32.625 47,33 46.875,33.375 46.75,33.75 46.375,33.875 46,34 45.625,34.125 45.25,34.25 45.125,34.625 45,35 44.875,35.375 44.75,35.75 44.375,35.875 44,36 43.625,36.125 43.25,36.25 43.125,36.625 43,37 42.875,37.375 42.75,37.75 42.375,37.875 42,38 41.5,38 q -0.5,0 -1,0 -0.5,0 -0.875,0.125 -0.375,0.125 -0.5,0.5 Q 39,39 39,39.5 l 0,0.5 -0.5,0 q -0.5,0 -1,0 -0.5,0 -1,0 -0.5,0 -0.875,-0.125 -0.375,-0.125 -0.5,-0.5 Q 35,39 34.875,38.625 34.75,38.25 34.375,38.125 34,38 33.5,38 q -0.5,0 -1,0 -0.5,0 -1,0 -0.5,0 -1,0 -0.5,0 -1,0 -0.5,0 -0.875,-0.125 -0.375,-0.125 -0.5,-0.5 Q 28,37 27.875,36.625 27.75,36.25 27.375,36.125 27,36 26.625,35.875 26.25,35.75 26.125,35.375 26,35 25.875,34.625 25.75,34.25 25.375,34.125 25,34 24.625,33.875 24.25,33.75 24.125,33.375 24,33 23.875,32.625 23.75,32.25 23.375,32.125 23,32 22.625,31.875 22.25,31.75 22.125,31.375 22,31 22.125,30.625 22.25,30.25 22.625,30.125 23,30 23.125,29.625 23.25,29.25 23.5,29.25 q 0.25,0 0.5,0.25 0.25,0.25 0.671875,0.328125 l 0.421875,0.07813 -0.07813,-0.04687 -0.07813,-0.04687 0.15625,0.09375 Q 25.25,30 25.5,30 l 0.25,0 -0.375,0 -0.375,0 0.5,0 0.5,0 -0.375,0 -0.375,0 0.25,0 q 0.25,0 0.46875,0.03125 L 26.1875,30.0625 26.078125,30.04687 25.96875,30.03124 25.98438,30.515615 26,31 25.625,31.125 25.25,31.25 25.53125,31.15625 25.8125,31.0625 25.625,31.125 q -0.1875,0.0625 -0.28125,0.15625 L 25.25,31.375 25.29687,31.32813 25.34374,31.28126 25.046865,31.015635 Q 24.75,30.75 24.375,30.875 24,31 24.125,31.375 24.25,31.75 24.5,32 q 0.25,0.25 0.546875,-0.01563 L 25.34375,31.71875 25.296875,31.671875 25.25,31.625 25.34375,31.71875 Q 25.4375,31.8125 25.625,31.875 L 25.8125,31.9375 25.53125,31.84375 25.25,31.75 25.625,31.875 26,32 25.71875,31.90625 25.4375,31.8125 25.625,31.875 q 0.1875,0.0625 0.375,0.0625 l 0.1875,0 -0.09375,0 -0.09375,0 0,0.53125 Q 26,33 26.125,33.375 q 0.125,0.375 0.5,0.5 0.375,0.125 0.75,0 0.375,-0.125 0.5,-0.5 Q 28,33 28.125,32.625 28.25,32.25 28.625,32.125 29,32 29.5,32 q 0.5,0 0.875,-0.125 0.375,-0.125 0.5,-0.5 0.125,-0.375 0,-0.75 L 30.75,30.25 30.84375,30.53125 30.9375,30.8125 30.875,30.625 Q 30.8125,30.4375 30.71875,30.34375 L 30.625,30.25 l 0.04687,0.04687 0.04687,0.04687 0.265625,-0.296875 Q 31.25,29.75 31.125,29.375 31,29 31.125,28.625 M 25.71875,31.09375 26,31 26.09375,30.96875 26.1875,30.9375 26,31 q -0.1875,0.0625 -0.375,0.125 l -0.1875,0.0625 0.28125,-0.09375 M 31.5,36 q 0.5,0 0.875,-0.125 0.375,-0.125 0.5,-0.5 0.125,-0.375 0,-0.75 -0.125,-0.375 -0.5,-0.5 Q 32,34 31.5,34 q -0.5,0 -1,0 -0.5,0 -1,0 -0.5,0 -0.875,0.125 -0.375,0.125 -0.5,0.5 -0.125,0.375 0,0.75 0.125,0.375 0.5,0.5 Q 29,36 29.5,36 q 0.5,0 1,0 0.5,0 1,0"
         style="fill:#d5cabe;fill-opacity:1" />
      <path
         id="path3451"
         d="m 61,28.5 q 0.25,-0.25 0.625,-0.375 0.375,-0.125 0.75,0 0.375,0.125 0.375,0.375 0,0.25 -0.25,0.5 -0.25,0.25 -0.5,0.5 -0.25,0.25 -0.625,0.375 Q 61,30 60.5,30 60,30 59.625,29.875 59.25,29.75 59.25,29.5 q 0,-0.25 0.375,-0.375 Q 60,29 60.375,28.875 60.75,28.75 61,28.5"
         style="fill:#000000;fill-opacity:1" />
      <path
         id="path3453"
         d="m 63.75,28.5 q 0,-0.25 0.28125,-0.5 L 64.3125,27.75 64.28125,27.6875 64.25,27.625 64.3125,27.75 Q 64.375,27.875 64.5,28 L 64.625,28.125 64.4375,27.9375 64.25,27.75 64.5,28 q 0.25,0.25 0.25,0.5 0,0.25 -0.25,0.5 L 64.25,29.25 64,29 Q 63.75,28.75 63.75,28.5 M 64.1875,29.3125 64.25,29.25 64.4375,29.0625 64.625,28.875 64.5,29 q -0.125,0.125 -0.25,0.25 l -0.125,0.125 0.0625,-0.0625"
         style="fill:#ffffff;fill-opacity:0.13333333" />
      <path
         id="path3455"
         d="M 16.875,29.375 Q 17,29 17.5,29 18,29 18,29.5 L 18,30 17.625,30.125 17.25,30.25 17.53125,30.15625 17.8125,30.0625 17.625,30.125 q -0.1875,0.0625 -0.34375,0.15625 L 17.125,30.375 17.20313,30.32813 17.28126,30.28126 17.015635,30.015635 Q 16.75,29.75 16.875,29.375"
         style="fill:#ffffff;fill-opacity:0.13333333" />
      <path
         id="path3457"
         d="M 24,29.5 23.75,29.25 23.9375,29.4375 24.125,29.625 24,29.5 q -0.125,-0.125 -0.25,-0.1875 l -0.125,-0.0625 0.0625,0.03125 0.0625,0.03125 0.265625,-0.296875 0.265625,-0.296875 -0.04687,-0.07813 -0.04687,-0.07813 0.09375,0.15625 Q 24.375,28.875 24.5,29 L 24.625,29.125 24.4375,28.9375 24.25,28.75 24.5,29 q 0.25,0.25 0.375,0.625 L 25,30 24.90625,29.71875 24.8125,29.4375 24.875,29.625 q 0.0625,0.1875 0.21875,0.28125 L 25.25,30 25.17187,29.95313 25.09374,29.90626 24.671865,29.82813 Q 24.25,29.75 24,29.5"
         style="fill:#877f75;fill-opacity:1" />
      <path
         id="path3459"
         d="M 56.875,29.375 Q 57,29 57.5,29 58,29 58.125,29.375 58.25,29.75 58,30.03125 L 57.75,30.3125 57.8125,30.34375 57.875,30.375 57.75,30.3125 Q 57.625,30.25 57.5,30.25 l -0.125,0 0.1875,0 0.1875,0 -0.25,0 -0.25,0 0.1875,0 0.1875,0 -0.125,0 q -0.125,0 -0.25,0.0625 L 57.125,30.375 57.1875,30.34375 57.25,30.3125 57,30.03125 Q 56.75,29.75 56.875,29.375"
         style="fill:#ffffff;fill-opacity:0.13333333" />
      <path
         id="path3461"
         d="m 20,30.5 0,-0.5 0,0.375 0,0.375 0,-0.25 q 0,-0.25 -0.03125,-0.46875 l -0.03125,-0.21875 0.01563,0.109375 0.01563,0.109375 0.515625,-0.01563 Q 21,30 21.375,29.875 L 21.75,29.75 21.46875,29.84375 21.1875,29.9375 21.375,29.875 q 0.1875,-0.0625 0.34375,-0.15625 L 21.875,29.625 l -0.07813,0.04687 -0.07813,0.04687 0.296875,0.296875 0.296875,0.296875 0.0625,-0.0625 0.0625,-0.0625 -0.125,0.125 q -0.125,0.125 -0.1875,0.3125 L 22.0625,30.8125 22.15625,30.53125 22.25,30.25 22.125,30.625 q -0.125,0.375 0,0.75 0.125,0.375 0.5,0.5 0.375,0.125 0.75,0.25 0.375,0.125 0.5,0.5 0.125,0.375 0.25,0.75 0.125,0.375 0.5,0.5 0.375,0.125 0.75,0.25 0.375,0.125 0.5,0.5 0.125,0.375 0.25,0.75 0.125,0.375 0.5,0.5 0.375,0.125 0.75,0.25 0.375,0.125 0.5,0.5 0.125,0.375 0.25,0.75 0.125,0.375 0.5,0.5 Q 29,38 29.5,38 q 0.5,0 1,0 0.5,0 1,0 0.5,0 1,0 0.5,0 1,0 0.5,0 0.875,0.125 0.375,0.125 0.5,0.5 0.125,0.375 0.25,0.75 0.125,0.375 0.5,0.5 Q 36,40 36.5,40 l 0.5,0 0,0.5 q 0,0.5 -0.0625,1.0625 L 36.875,42.125 36.9375,42.1875 37,42.25 36.875,42.125 Q 36.75,42 36.5,42 l -0.25,0 0.375,0 0.375,0 -0.5,0 q -0.5,0 -1,0 -0.5,0 -1,0 -0.5,0 -1,0 l -0.5,0 0.375,0 0.375,0 -0.25,0 q -0.25,0 -0.375,0.125 L 33,42.25 33.0625,42.1875 33.125,42.125 33.0625,41.5625 Q 33,41 32.875,40.625 32.75,40.25 32.375,40.125 32,40 31.4375,40.0625 L 30.875,40.125 30.9375,40.1875 31,40.25 30.875,40.125 Q 30.75,40 30.5,40 l -0.25,0 0.375,0 0.375,0 -0.5,0 q -0.5,0 -1,0 -0.5,0 -1,0 -0.5,0 -1,0 -0.5,0 -1,0 -0.5,0 -1,0 -0.5,0 -0.875,-0.125 -0.375,-0.125 -0.5,-0.5 Q 24,39 24,38.5 24,38 24,37.5 24,37 23.875,36.625 23.75,36.25 23.375,36.125 23,36 22.625,35.875 22.25,35.75 22.125,35.375 22,35 21.875,34.625 21.75,34.25 21.375,34.125 21,34 20.625,33.875 20.25,33.75 20.125,33.375 20,33 20,32.5 q 0,-0.5 0,-1 0,-0.5 0,-1 M 37.125,40 37,40 l -0.375,0 -0.375,0 0.25,0 q 0.25,0 0.5,0 l 0.25,0 -0.125,0"
         style="fill:#9c9287;fill-opacity:1" />
      <path
         id="path3463"
         d="M 25.984375,30.515625 25.96875,30.03125 25.859375,30.015625 25.75,30 25.96875,30.03125 Q 26.1875,30.0625 26.375,30.125 L 26.5625,30.1875 26.28125,30.09375 26,30 l 0.375,0.125 q 0.375,0.125 0.375,0.375 0,0.25 -0.375,0.375 L 26,31 25.984375,30.515625 M 25.90625,31.03125 26,31 26.28125,30.90625 26.5625,30.8125 26.375,30.875 Q 26.1875,30.9375 26,31 l -0.1875,0.0625 0.09375,-0.03125"
         style="fill:#877f75;fill-opacity:1" />
      <path
         id="path3465"
         d="M 27.875,30.375 28,30 l 0.375,0.125 q 0.375,0.125 0.5,0.5 Q 29,31 28.625,31.125 28.25,31.25 28,31.5 27.75,31.75 27.5,32 27.25,32.25 26.984375,31.98437 l -0.265625,-0.265625 -0.07813,0.04687 -0.07813,0.04687 0.15625,-0.09375 Q 26.875,31.625 27,31.5 L 27.125,31.375 26.9375,31.5625 26.75,31.75 27,31.5 q 0.25,-0.25 0.5,-0.5 0.25,-0.25 0.375,-0.625"
         style="fill:#877f75;fill-opacity:1" />
      <path
         id="path3467"
         d="M 28.875,30.625 28.75,30.25 28.84375,30.53125 28.9375,30.8125 28.875,30.625 q -0.0625,-0.1875 -0.1875,-0.3125 l -0.125,-0.125 0.0625,0.0625 0.0625,0.0625 0.296875,-0.328125 0.296875,-0.328125 -0.04687,-0.04687 -0.04687,-0.04687 0.09375,0.09375 Q 29.375,29.75 29.5,29.75 l 0.125,0 -0.1875,0 -0.1875,0 0.25,0 0.25,0 -0.1875,0 -0.1875,0 0.125,0 q 0.125,0 0.21875,-0.09375 l 0.09375,-0.09375 -0.04687,0.04687 -0.04687,0.04687 0.265625,0.296875 Q 30.25,30.25 30.5,30.25 q 0.25,0 0.375,0.375 0.125,0.375 0,0.75 -0.125,0.375 -0.5,0.5 Q 30,32 29.5,32 q -0.5,0 -0.875,0.125 -0.375,0.125 -0.5,0.5 -0.125,0.375 -0.25,0.75 -0.125,0.375 -0.5,0.5 -0.375,0.125 -0.75,0 -0.375,-0.125 -0.5,-0.5 Q 26,33 26,32.46875 l 0,-0.53125 -0.09375,0 -0.09375,0 0.1875,0 q 0.1875,0 0.375,-0.0625 L 26.5625,31.8125 26.28125,31.90625 26,32 26.375,31.875 26.75,31.75 26.46875,31.84375 26.1875,31.9375 26.375,31.875 q 0.1875,-0.0625 0.34375,-0.15625 L 26.875,31.625 l -0.07813,0.04687 -0.07813,0.04687 0.265625,0.265625 Q 27.25,32.25 27.5,32 27.75,31.75 28,31.5 28.25,31.25 28.625,31.125 29,31 28.875,30.625"
         style="fill:#9c9287;fill-opacity:1" />
      <path
         id="path3469"
         d="M 24.125,31.375 Q 24,31 24.375,30.875 24.75,30.75 25.046875,31.015625 l 0.296875,0.265625 0.04687,-0.04687 0.04687,-0.04687 -0.09375,0.09375 Q 25.25,31.375 25.25,31.5 l 0,0.125 0,-0.1875 0,-0.1875 0,0.25 0,0.25 0,-0.1875 0,-0.1875 0,0.125 q 0,0.125 0.09375,0.21875 l 0.09375,0.09375 -0.04687,-0.04687 -0.04687,-0.04687 -0.296875,0.265625 Q 24.75,32.25 24.5,32 24.25,31.75 24.125,31.375"
         style="fill:#b9afa5;fill-opacity:1" />
      <path
         id="path3471"
         d="m 28.125,34.625 q 0.125,-0.375 0.5,-0.5 Q 29,34 29.5,34 q 0.5,0 1,0 0.5,0 1,0 0.5,0 0.875,0.125 0.375,0.125 0.5,0.5 0.125,0.375 0,0.75 -0.125,0.375 -0.5,0.5 Q 32,36 31.5,36 q -0.5,0 -1,0 -0.5,0 -1,0 -0.5,0 -0.875,-0.125 -0.375,-0.125 -0.5,-0.5 -0.125,-0.375 0,-0.75"
         style="fill:#9c9287;fill-opacity:1" />
      <path
         id="path3473"
         d="m 39.125,38.625 q 0.125,-0.375 0.5,-0.5 Q 40,38 40.5,38 l 0.5,0 0,0.5 q 0,0.5 -0.125,0.875 -0.125,0.375 -0.5,0.5 Q 40,40 39.5,40 l -0.5,0 0,-0.5 q 0,-0.5 0.125,-0.875 m 2,-0.625 -0.125,0 -0.375,0 -0.375,0 0.25,0 q 0.25,0 0.5,0 l 0.25,0 -0.125,0"
         style="fill:#9c9287;fill-opacity:1" />
      <path
         id="path3475"
         d="m 31,40.5 0,-0.5 0,0.375 0,0.375 0,-0.25 q 0,-0.25 -0.125,-0.375 L 30.75,40 l 0.0625,0.0625 0.0625,0.0625 0.5625,-0.0625 Q 32,40 32.375,40.125 q 0.375,0.125 0.5,0.5 Q 33,41 33.0625,41.5625 L 33.125,42.125 33.1875,42.0625 33.25,42 33.125,42.125 Q 33,42.25 33,42.5 l 0,0.25 0,-0.375 0,-0.375 0,0.5 q 0,0.5 0,1 0,0.5 0,1 0,0.5 0,1 0,0.5 0,1 0,0.5 0,1 0,0.5 0,1 0,0.5 0,1 0,0.5 0.125,0.875 0.125,0.375 0.5,0.5 0.375,0.125 0.75,0.25 0.375,0.125 0.5,0.5 0.125,0.375 0,0.75 -0.125,0.375 -0.5,0.5 Q 34,53 33.5,53 33,53 32.5,53 32,53 31.625,52.875 31.25,52.75 31.125,52.375 31,52 31,51.5 q 0,-0.5 0,-1 0,-0.5 0,-1 0,-0.5 0,-1 0,-0.5 0,-1 0,-0.5 0,-1 0,-0.5 0,-1 0,-0.5 0,-1 0,-0.5 0,-1 0,-0.5 0,-1 0,-0.5 0,-1 0,-0.5 0,-1"
         style="fill:#ba8b54;fill-opacity:1" />
      <path
         id="path3477"
         d="m 37,40.5 0,-0.5 0.5,0 q 0.5,0 1,0 l 0.5,0 0,0.5 q 0,0.5 0,1 0,0.5 0,1 0,0.5 0,1 0,0.5 0,1 0,0.5 0.125,0.875 0.125,0.375 0.5,0.5 0.375,0.125 0.75,0.25 0.375,0.125 0.5,0.5 Q 41,47 41,47.5 q 0,0.5 -0.125,0.875 -0.125,0.375 -0.5,0.5 Q 40,49 39.5,49 39,49 38.5,49 38,49 37.625,48.875 37.25,48.75 37.125,48.375 37,48 37,47.5 q 0,-0.5 0,-1 0,-0.5 0,-1 0,-0.5 0,-1 0,-0.5 0,-1 0,-0.5 0,-1 l 0,-0.5 0,0.375 0,0.375 0,-0.25 q 0,-0.25 -0.125,-0.375 L 36.75,42 l 0.0625,0.0625 0.0625,0.0625 0.0625,-0.5625 Q 37,41 37,40.5 M 37.375,40 37,40 36.875,40 36.75,40 37,40 q 0.25,0 0.5,0 l 0.25,0 -0.375,0"
         style="fill:#ba8b54;fill-opacity:1" />
      <path
         id="path3479"
         d="m 34.125,43.625 q 0.125,-0.375 0.5,-0.5 0.375,-0.125 0.75,0 0.375,0.125 0.5,0.5 Q 36,44 36,44.5 q 0,0.5 0,1 0,0.5 0,1 0,0.5 0,1 0,0.5 0,1 0,0.5 -0.125,0.875 -0.125,0.375 -0.5,0.5 -0.375,0.125 -0.75,0 -0.375,-0.125 -0.5,-0.5 Q 34,49 34,48.5 q 0,-0.5 0,-1 0,-0.5 0,-1 0,-0.5 0,-1 0,-0.5 0,-1 0,-0.5 0.125,-0.875"
         style="fill:#000000;fill-opacity:0" />
    </g>
  </g>
</svg>
